<svg xmlns="http://www.w3.org/2000/svg" xmlns:xlink="http://www.w3.org/1999/xlink" width="500" zoomAndPan="magnify" viewBox="0 0 375 374.999991" height="500" preserveAspectRatio="xMidYMid meet" version="1.0"><defs><g/><clipPath id="id1"><path d="M 349 114.734375 L 365.085938 114.734375 L 365.085938 131.925781 L 349 131.925781 Z M 349 114.734375 " clip-rule="nonzero"/></clipPath></defs><path fill="#fe9857" d="M 44.726562 174.035156 L 155.574219 150.324219 C 155.574219 150.324219 172.417969 148.617188 184.023438 148.785156 C 195.632812 148.957031 202.011719 151 202.011719 151 L 216.429688 155.238281 C 216.429688 155.238281 222.378906 159.011719 230.019531 167.253906 C 238.203125 176.078125 248.34375 189.691406 256.027344 198.816406 C 270.246094 215.714844 278.691406 223.359375 278.691406 223.359375 C 278.691406 223.359375 282.375 209.484375 284.648438 198.144531 C 286.917969 186.804688 287.769531 177.992188 287.769531 177.992188 L 332.78125 189.09375 C 332.78125 189.09375 328.945312 217.113281 321.40625 246.136719 C 315.976562 267.007812 308.992188 289.691406 298.472656 296.777344 C 289 303.160156 278.222656 295.398438 267.269531 287.828125 C 249.128906 275.289062 226.636719 249.382812 226.636719 249.382812 L 226.636719 264.6875 L 222.597656 297.421875 C 222.597656 297.421875 222.628906 296.867188 222.8125 319.105469 C 222.890625 329.304688 225.515625 346.808594 225.6875 359.683594 C 225.890625 374.875 226.082031 387.59375 226.082031 387.59375 C 226.082031 387.59375 190.675781 393.75 152.351562 393.75 C 114.023438 393.75 72.777344 387.59375 72.777344 387.59375 C 72.777344 387.59375 73.683594 372.464844 73.386719 364.378906 C 73.097656 356.300781 71.617188 355.253906 71.617188 355.253906 C 71.617188 355.253906 52.171875 358.640625 45.171875 346.417969 C 36.4375 331.164062 32.804688 307.46875 27.789062 283.003906 C 24.710938 267.984375 19.066406 251.195312 17.445312 240.285156 C 15.75 228.84375 11.839844 208.375 14.128906 199.988281 C 17.414062 187.96875 24.898438 183.457031 31.527344 179.988281 C 38.597656 176.285156 44.726562 174.035156 44.726562 174.035156 " fill-opacity="1" fill-rule="evenodd"/><path fill="#935f4d" d="M 66.359375 194.386719 C 66.667969 194.386719 68.1875 200.054688 67.785156 205.007812 C 67.386719 209.964844 65.738281 213.167969 65.511719 213.757812 C 64.171875 217.242188 57.878906 222.464844 57.566406 222.464844 C 57.25 222.464844 58.191406 211.035156 58.191406 210.722656 C 58.191406 210.089844 60.734375 204.125 60.734375 203.804688 C 60.734375 203.492188 66.046875 194.386719 66.359375 194.386719 Z M 39.007812 150.75 C 39.3125 150.710938 42.941406 169.722656 43.035156 170.023438 C 43.773438 172.347656 49.257812 178.945312 49.28125 179.019531 C 49.363281 179.320312 42.40625 191.652344 42.105469 191.738281 C 41.804688 191.824219 34.855469 190.960938 32.609375 183.980469 C 31.074219 179.21875 31.710938 172.5625 31.71875 172.464844 C 32.027344 162.152344 38.695312 150.789062 39.007812 150.75 Z M 172.753906 95.269531 C 173.019531 95.097656 177.964844 99.128906 179.320312 102.175781 C 179.421875 102.402344 181.351562 105.101562 181.773438 106.796875 C 182.199219 108.488281 182.371094 110.394531 181.988281 111.835938 C 181.605469 113.277344 178.769531 115.230469 178.601562 114.972656 C 178.460938 114.765625 174.703125 108.066406 173.730469 105.484375 C 172.753906 102.898438 172.496094 95.449219 172.753906 95.269531 Z M 104.785156 3.738281 C 89.15625 3.863281 66.855469 22.929688 56.332031 40.707031 C 51.015625 49.679688 48.050781 63.273438 47.101562 76.441406 C 46.210938 88.726562 48.726562 108.265625 42.113281 125.332031 C 35.65625 141.980469 20.089844 156.132812 19.796875 169.339844 C 19.429688 185.863281 38.894531 205.039062 38.894531 205.039062 C 38.894531 205.039062 34.15625 220.941406 37.40625 229.871094 C 40.664062 238.808594 51.910156 240.808594 51.910156 240.808594 C 51.910156 240.808594 55.960938 245.007812 60.503906 246.042969 C 65.046875 247.078125 70.089844 244.945312 70.089844 244.945312 C 70.089844 244.945312 64.523438 243.214844 60.714844 239.601562 C 56.910156 235.992188 54.847656 230.511719 54.847656 230.511719 C 54.847656 230.511719 67.5 226.714844 72.246094 216.679688 C 76.992188 206.644531 73.835938 190.359375 73.835938 190.359375 C 73.835938 190.359375 76.976562 185.121094 79.210938 180.984375 C 81.457031 176.84375 82.785156 173.835938 82.785156 173.835938 L 154.726562 150.378906 L 178.28125 148.613281 L 188.855469 148.964844 C 188.855469 148.964844 190.152344 139.738281 188.5 133.152344 C 186.855469 126.558594 182.277344 122.605469 182.277344 122.605469 C 182.277344 122.605469 189.839844 113.5 187.585938 104.105469 C 185.75 96.464844 177.285156 87.519531 173.472656 77.925781 C 168.929688 66.496094 169.121094 54.964844 169.121094 54.964844 C 167.4375 37.574219 152.996094 19.726562 141.039062 12.617188 C 130.503906 6.351562 122.1875 9.824219 122.1875 9.824219 C 122.1875 9.824219 115.441406 3.652344 104.785156 3.738281 " fill-opacity="1" fill-rule="evenodd"/><path fill="#ffddc0" d="M 299.40625 102.601562 L 352.730469 89.023438 C 352.730469 89.023438 363.636719 91.449219 363.152344 95.246094 C 362.671875 99.042969 351.679688 99.449219 351.679688 99.449219 L 351.824219 104.148438 C 351.824219 104.148438 360.289062 103.71875 362.183594 106.640625 C 364.082031 109.5625 359.40625 115.839844 359.40625 115.839844 C 359.40625 115.839844 365.613281 118.96875 363.59375 122.6875 C 362.546875 124.617188 358.828125 127.550781 355.933594 129.117188 C 353.25 130.5625 351.335938 130.703125 351.335938 130.703125 L 351.105469 136.796875 C 351.105469 136.796875 359.671875 140.464844 359.59375 143.675781 C 359.519531 146.890625 350.808594 149.644531 350.808594 149.644531 L 328.054688 176.5 L 326.152344 191.671875 C 326.152344 191.671875 315.558594 191.949219 306.875 189.460938 C 298.183594 186.972656 291.394531 181.722656 291.394531 181.722656 C 291.394531 181.722656 294.558594 167.816406 292.832031 160.394531 C 290.472656 150.246094 285.769531 136.414062 285.027344 126.035156 C 284.558594 119.546875 287.199219 113.847656 288.296875 106.757812 C 289.386719 99.726562 288.921875 91.285156 291.3125 90.472656 C 296.253906 88.78125 299.40625 102.601562 299.40625 102.601562 " fill-opacity="1" fill-rule="evenodd"/><path fill="#ffddc0" d="M 233.488281 125.621094 C 239.941406 121.027344 241.574219 126.316406 237.625 132.21875 C 233.433594 138.488281 225 146.058594 217.839844 153.355469 C 211.164062 160.15625 205.589844 166.910156 205.589844 166.910156 C 205.589844 166.910156 225.296875 174.714844 229.796875 180.78125 C 231.882812 183.585938 222.914062 191.675781 222.914062 191.675781 C 222.914062 191.675781 223.871094 194.109375 222.105469 196.578125 C 220.335938 199.039062 215.839844 201.527344 215.839844 201.527344 C 215.839844 201.527344 216.171875 203.347656 214.28125 205.253906 C 211.617188 207.941406 206.117188 211.03125 202.789062 211.488281 C 197.097656 212.277344 193.082031 204.683594 193.082031 204.683594 C 193.082031 204.683594 186.332031 209.96875 178.519531 213.839844 C 172.421875 216.859375 165.585938 218.117188 161.425781 221.269531 C 159.101562 223.03125 153.410156 231.050781 153.410156 231.050781 C 153.410156 231.050781 146.9375 221.734375 141.625 216.296875 C 136.316406 210.863281 132.171875 209.3125 132.171875 209.3125 C 132.171875 209.3125 138.457031 201.582031 145.179688 195.894531 C 152.40625 189.785156 160.433594 185.421875 170.617188 176.992188 C 184.316406 165.652344 196.824219 155.65625 210.433594 144.851562 C 218.761719 138.238281 227.925781 129.574219 233.488281 125.621094 " fill-opacity="1" fill-rule="evenodd"/><path fill="#ffddc0" d="M 68.46875 100.03125 L 85.875 77.082031 C 85.875 77.082031 97.085938 76.007812 104.570312 66.136719 C 108.648438 60.757812 109.996094 50.285156 113.328125 44.503906 C 115.394531 40.917969 118.910156 40.160156 122.257812 40.453125 C 126.496094 40.828125 129.175781 43.570312 131.949219 49.382812 C 135.691406 57.207031 139.222656 69.230469 143.425781 75.683594 C 149.792969 85.453125 160.285156 83.605469 160.285156 83.605469 C 160.285156 83.605469 161.042969 90.558594 158.652344 95.125 C 156.257812 99.695312 150.710938 101.882812 150.710938 101.882812 C 150.710938 101.882812 149.617188 110.488281 146.441406 118.085938 C 143.265625 125.6875 138.003906 132.273438 138.003906 132.273438 C 138.003906 132.273438 138.003906 141.835938 141.285156 147.152344 C 143.777344 151.195312 155.210938 150.421875 155.210938 150.421875 C 155.210938 150.421875 154.277344 160.332031 150.835938 169.566406 C 147.402344 178.773438 141.472656 187.304688 132.515625 190.152344 C 124.035156 192.839844 111.753906 191.101562 102.058594 186.519531 C 91.234375 181.402344 83.425781 173.210938 83.425781 173.210938 C 83.425781 173.210938 86.972656 162.75 85.914062 147.207031 C 84.996094 133.71875 79.636719 115.597656 77.578125 107.167969 C 76.738281 103.71875 74.925781 102.925781 72.859375 102.042969 C 70.699219 101.125 68.46875 100.03125 68.46875 100.03125 " fill-opacity="1" fill-rule="evenodd"/><path fill="#586580" d="M 298.152344 121.644531 L 299.4375 67.179688 L 302.496094 65.132812 L 351.84375 67.144531 L 353.746094 70.339844 L 351.824219 110.613281 L 349.136719 118.832031 L 350.289062 123.019531 L 349.355469 144.195312 L 348.140625 148.210938 L 350.296875 150.402344 L 349.121094 174.777344 L 347.007812 176.257812 L 297.523438 174.722656 L 295.304688 171.398438 L 298.152344 121.644531 " fill-opacity="1" fill-rule="evenodd"/><path fill="#efefef" d="M 301.152344 69.96875 L 303.679688 68.164062 L 349.429688 69.96875 L 351.664062 71.953125 L 348.125 171.210938 L 345.816406 173.335938 L 299.097656 171.03125 L 297.359375 168.980469 L 301.152344 69.96875 " fill-opacity="1" fill-rule="evenodd"/><path fill="#000000" d="M 132.140625 210.402344 C 131.90625 210.402344 131.675781 210.320312 131.488281 210.152344 C 131.082031 209.792969 131.042969 209.171875 131.40625 208.765625 C 131.476562 208.6875 138.664062 200.609375 143.800781 195.757812 C 148.402344 191.410156 154.101562 187.441406 160.707031 182.847656 C 165.898438 179.234375 171.78125 175.140625 177.832031 170.320312 C 180.632812 168.089844 184.617188 164.691406 188.128906 161.695312 C 189.480469 160.542969 190.769531 159.445312 191.902344 158.484375 C 197.21875 153.992188 202.117188 150.140625 206.859375 146.417969 C 210.972656 143.1875 214.867188 140.128906 218.609375 136.972656 C 221.175781 134.816406 223.421875 132.855469 225.398438 131.128906 C 233.558594 124.015625 237.28125 120.773438 240.082031 123.707031 C 240.71875 124.375 241.019531 125.277344 240.972656 126.390625 C 240.777344 130.957031 234.378906 139.460938 224.671875 148.050781 C 216.246094 155.507812 206.605469 166.964844 206.507812 167.078125 C 206.152344 167.492188 205.539062 167.546875 205.121094 167.199219 C 204.707031 166.851562 204.652344 166.230469 205.003906 165.816406 C 205.101562 165.699219 214.835938 154.132812 223.371094 146.578125 C 233.921875 137.238281 238.871094 129.523438 239.007812 126.308594 C 239.03125 125.75 238.917969 125.328125 238.664062 125.0625 C 237.160156 123.488281 233.21875 126.917969 226.691406 132.609375 C 224.703125 134.34375 222.449219 136.304688 219.875 138.476562 C 216.105469 141.652344 212.203125 144.71875 208.070312 147.964844 C 203.347656 151.675781 198.457031 155.515625 193.167969 159.988281 C 192.035156 160.941406 190.75 162.039062 189.40625 163.1875 C 185.878906 166.195312 181.882812 169.605469 179.054688 171.855469 C 172.957031 176.71875 167.042969 180.828125 161.828125 184.460938 C 155.289062 189.011719 149.644531 192.9375 145.144531 197.1875 C 140.074219 201.980469 132.945312 209.992188 132.871094 210.070312 C 132.679688 210.289062 132.410156 210.402344 132.140625 210.402344 " fill-opacity="1" fill-rule="nonzero"/><path fill="#000000" d="M 153.859375 232.449219 C 153.671875 232.449219 153.484375 232.398438 153.316406 232.285156 C 152.867188 231.984375 152.742188 231.375 153.042969 230.921875 C 153.183594 230.714844 153.335938 230.472656 153.515625 230.183594 C 154.453125 228.675781 156.03125 226.140625 159.988281 221.570312 C 162.050781 219.179688 165.191406 218.011719 169.949219 216.246094 C 171.859375 215.53125 174.027344 214.726562 176.523438 213.699219 C 182.164062 211.378906 192.125 204.667969 197.886719 199.855469 C 198.300781 199.511719 198.917969 199.5625 199.269531 199.976562 C 199.613281 200.394531 199.558594 201.011719 199.144531 201.363281 C 193.269531 206.265625 183.078125 213.125 177.269531 215.515625 C 174.742188 216.558594 172.558594 217.371094 170.632812 218.085938 C 166.003906 219.808594 163.203125 220.847656 161.472656 222.855469 C 157.621094 227.3125 156.089844 229.757812 155.175781 231.222656 C 154.988281 231.53125 154.828125 231.789062 154.675781 232.011719 C 154.488281 232.296875 154.175781 232.449219 153.859375 232.449219 " fill-opacity="1" fill-rule="nonzero"/><path fill="#000000" d="M 202.976562 207.175781 C 202.835938 207.175781 202.703125 207.144531 202.570312 207.085938 C 199.527344 205.710938 196.625 203.339844 196.5 203.242188 C 196.082031 202.898438 196.023438 202.277344 196.367188 201.859375 C 196.707031 201.441406 197.328125 201.375 197.746094 201.722656 C 197.777344 201.742188 200.578125 204.03125 203.378906 205.300781 C 203.871094 205.523438 204.09375 206.105469 203.867188 206.601562 C 203.703125 206.964844 203.347656 207.175781 202.976562 207.175781 " fill-opacity="1" fill-rule="nonzero"/><path fill="#000000" d="M 201.976562 212.5 C 199.328125 212.5 195.304688 210.332031 193.574219 207.902344 C 192.386719 206.230469 192.574219 204.910156 192.945312 204.097656 C 193.171875 203.601562 193.753906 203.386719 194.246094 203.609375 C 194.738281 203.832031 194.957031 204.417969 194.734375 204.910156 C 194.503906 205.410156 194.65625 206.03125 195.171875 206.761719 C 196.695312 208.898438 200.4375 210.703125 202.199219 210.527344 C 205.246094 210.238281 214.515625 205.132812 214.730469 202.765625 C 214.996094 199.898438 202.953125 190.292969 194.308594 184.386719 C 193.863281 184.082031 193.746094 183.46875 194.054688 183.023438 C 194.363281 182.574219 194.972656 182.460938 195.421875 182.765625 C 199.050781 185.25 217.152344 197.894531 216.6875 202.945312 C 216.328125 206.910156 205.777344 212.164062 202.382812 212.484375 C 202.25 212.496094 202.117188 212.5 201.976562 212.5 " fill-opacity="1" fill-rule="nonzero"/><path fill="#000000" d="M 216.011719 202.769531 C 215.679688 202.769531 215.351562 202.597656 215.167969 202.289062 C 214.890625 201.820312 215.042969 201.21875 215.511719 200.941406 C 218.703125 199.046875 222.71875 195.253906 221.660156 192.757812 C 220.496094 190.03125 203.757812 177.640625 194.921875 172.972656 C 194.445312 172.71875 194.261719 172.121094 194.515625 171.644531 C 194.765625 171.164062 195.363281 170.976562 195.839844 171.234375 C 204.0625 175.582031 221.910156 188.335938 223.46875 191.992188 C 225.210938 196.101562 219.683594 200.746094 216.515625 202.632812 C 216.359375 202.722656 216.183594 202.769531 216.011719 202.769531 " fill-opacity="1" fill-rule="nonzero"/><path fill="#000000" d="M 222.554688 192.816406 C 222.265625 192.816406 221.980469 192.691406 221.789062 192.449219 C 221.449219 192.027344 221.515625 191.410156 221.9375 191.070312 C 225.824219 187.953125 229.605469 183.761719 228.578125 181.347656 C 227.960938 179.90625 221.953125 175.742188 196.8125 164.121094 C 196.320312 163.890625 196.105469 163.308594 196.332031 162.816406 C 196.558594 162.324219 197.144531 162.109375 197.636719 162.339844 C 219.144531 172.285156 229.246094 177.90625 230.382812 180.578125 C 232.101562 184.617188 226.601562 189.84375 223.167969 192.601562 C 222.988281 192.746094 222.769531 192.816406 222.554688 192.816406 " fill-opacity="1" fill-rule="nonzero"/><path fill="#000000" d="M 219.652344 187 C 219.507812 187 219.363281 186.972656 219.230469 186.90625 C 219.152344 186.867188 211.765625 183.34375 208.800781 181.804688 C 208.320312 181.554688 208.132812 180.960938 208.378906 180.480469 C 208.632812 180 209.226562 179.8125 209.703125 180.058594 C 212.640625 181.585938 220.003906 185.097656 220.074219 185.132812 C 220.5625 185.367188 220.773438 185.953125 220.539062 186.441406 C 220.367188 186.796875 220.019531 187 219.652344 187 " fill-opacity="1" fill-rule="nonzero"/><path fill="#000000" d="M 32.011719 180.84375 C 31.65625 180.84375 31.316406 180.648438 31.136719 180.3125 C 30.890625 179.828125 31.078125 179.234375 31.5625 178.988281 C 35.070312 177.179688 39.171875 175.390625 44.460938 173.367188 C 44.96875 173.167969 45.53125 173.421875 45.726562 173.929688 C 45.921875 174.4375 45.667969 175 45.164062 175.195312 C 39.941406 177.195312 35.90625 178.957031 32.460938 180.730469 C 32.320312 180.808594 32.164062 180.84375 32.011719 180.84375 " fill-opacity="1" fill-rule="nonzero"/><path fill="#000000" d="M 63.574219 357.40625 C 61.746094 357.40625 59.929688 357.214844 58.167969 356.820312 C 51.109375 355.246094 45.613281 350.570312 42.691406 343.667969 C 36.996094 330.203125 34.082031 316.949219 28.792969 292.890625 C 27.59375 287.445312 26.273438 281.457031 24.777344 274.792969 C 23.453125 268.898438 21.949219 262.960938 20.492188 257.21875 C 14.820312 234.855469 9.464844 213.730469 14.480469 196.015625 C 15.734375 191.578125 18.65625 187.65625 23.414062 184.027344 C 23.847656 183.699219 24.460938 183.78125 24.792969 184.210938 C 25.117188 184.644531 25.035156 185.257812 24.605469 185.589844 C 20.195312 188.949219 17.503906 192.539062 16.367188 196.550781 C 11.496094 213.761719 16.789062 234.636719 22.394531 256.734375 C 23.855469 262.488281 25.363281 268.441406 26.695312 274.359375 C 28.191406 281.027344 29.511719 287.023438 30.710938 292.472656 C 35.976562 316.414062 38.875 329.601562 44.503906 342.902344 C 47.917969 350.984375 54.050781 353.890625 58.59375 354.902344 C 65.976562 356.558594 74.394531 354.359375 80.035156 349.296875 C 122.695312 311.046875 154.550781 247.511719 155.890625 244.828125 C 158.289062 240.003906 150.78125 226.015625 140.734375 216.585938 C 135.894531 212.039062 130.414062 209.433594 127.941406 209.515625 C 127.539062 209.53125 127.242188 209.621094 127.105469 209.765625 C 124.214844 212.925781 119.90625 218.300781 114.917969 224.519531 C 104.523438 237.492188 90.289062 255.253906 76.675781 268.207031 L 75.9375 268.910156 C 67.28125 277.144531 59.808594 284.253906 56.222656 289.746094 C 52.015625 296.1875 49.1875 311.011719 49.160156 311.160156 C 49.058594 311.695312 48.546875 312.046875 48.011719 311.945312 C 47.480469 311.84375 47.128906 311.332031 47.230469 310.796875 C 47.347656 310.171875 50.160156 295.441406 54.582031 288.667969 C 58.289062 282.992188 65.839844 275.808594 74.585938 267.488281 L 75.324219 266.78125 C 88.839844 253.925781 103.023438 236.21875 113.386719 223.292969 C 118.394531 217.042969 122.722656 211.644531 125.660156 208.441406 C 126.164062 207.886719 126.910156 207.589844 127.867188 207.550781 C 131.238281 207.449219 137.332031 210.695312 142.078125 215.15625 C 151.980469 224.445312 160.734375 239.480469 157.648438 245.703125 C 156.304688 248.402344 124.285156 312.261719 81.34375 350.761719 C 76.59375 355.023438 70.019531 357.40625 63.574219 357.40625 " fill-opacity="1" fill-rule="nonzero"/><path fill="#000000" d="M 77.3125 266.585938 C 76.890625 266.585938 76.5 266.3125 76.375 265.886719 C 71.023438 248.226562 67.21875 238.1875 61.835938 227.523438 C 61.59375 227.039062 61.785156 226.449219 62.269531 226.203125 C 62.75 225.960938 63.339844 226.152344 63.589844 226.636719 C 69.027344 237.414062 72.863281 247.539062 78.253906 265.320312 C 78.410156 265.835938 78.117188 266.386719 77.597656 266.546875 C 77.503906 266.574219 77.410156 266.585938 77.3125 266.585938 " fill-opacity="1" fill-rule="nonzero"/><path fill="#000000" d="M 72.113281 388.292969 C 72.058594 388.292969 72.007812 388.292969 71.949219 388.28125 C 71.414062 388.195312 71.054688 387.6875 71.140625 387.152344 C 71.171875 386.96875 74.136719 368.65625 71.464844 356.308594 C 71.351562 355.777344 71.6875 355.253906 72.21875 355.140625 C 72.753906 355.027344 73.273438 355.363281 73.386719 355.894531 C 76.136719 368.609375 73.207031 386.710938 73.078125 387.472656 C 73 387.957031 72.582031 388.292969 72.113281 388.292969 " fill-opacity="1" fill-rule="nonzero"/><path fill="#000000" d="M 225.972656 388.539062 C 225.4375 388.539062 225.003906 388.113281 224.992188 387.578125 C 224.640625 368.128906 223.820312 352.925781 223.105469 339.507812 C 222.238281 323.441406 221.5625 310.753906 222.25 299.125 C 222.753906 290.609375 223.53125 283.484375 224.222656 277.199219 C 225.4375 266.09375 226.3125 258.070312 224.960938 249.855469 C 223.601562 241.617188 221.84375 237.378906 219.976562 232.894531 C 217.839844 227.753906 215.636719 222.4375 213.992188 210.835938 C 213.917969 210.296875 214.289062 209.800781 214.828125 209.726562 C 215.371094 209.640625 215.859375 210.023438 215.933594 210.558594 C 217.546875 221.917969 219.703125 227.117188 221.792969 232.140625 C 223.617188 236.53125 225.503906 241.070312 226.898438 249.535156 C 228.292969 258.015625 227.355469 266.574219 226.171875 277.410156 C 225.488281 283.675781 224.710938 290.773438 224.207031 299.242188 C 223.527344 310.765625 224.207031 323.402344 225.0625 339.402344 C 225.785156 352.835938 226.597656 368.058594 226.957031 387.539062 C 226.964844 388.082031 226.535156 388.53125 225.996094 388.539062 C 225.984375 388.539062 225.980469 388.539062 225.972656 388.539062 " fill-opacity="1" fill-rule="nonzero"/><path fill="#000000" d="M 202.71875 151.699219 C 202.652344 151.699219 202.585938 151.691406 202.515625 151.679688 C 190.789062 149.238281 177.730469 150.054688 166.207031 150.773438 C 153.632812 151.554688 143.699219 152.175781 140.378906 147.976562 C 137.8125 144.742188 137.496094 140.984375 136.929688 134.15625 L 136.820312 132.835938 C 136.773438 132.289062 137.171875 131.816406 137.714844 131.773438 C 138.242188 131.726562 138.730469 132.128906 138.773438 132.667969 L 138.886719 133.992188 C 139.417969 140.4375 139.71875 143.984375 141.914062 146.757812 C 144.601562 150.152344 154.558594 149.527344 166.089844 148.8125 C 177.734375 148.089844 190.929688 147.265625 202.917969 149.753906 C 203.449219 149.867188 203.789062 150.386719 203.675781 150.917969 C 203.578125 151.382812 203.171875 151.699219 202.71875 151.699219 " fill-opacity="1" fill-rule="nonzero"/><path fill="#000000" d="M 278.226562 224.589844 C 277.980469 224.589844 277.738281 224.5 277.546875 224.316406 C 267.5625 214.777344 257.800781 202.660156 248.355469 190.949219 C 236.742188 176.542969 225.773438 162.9375 216.171875 156.453125 C 215.722656 156.148438 215.609375 155.539062 215.910156 155.089844 C 216.210938 154.640625 216.824219 154.523438 217.269531 154.824219 C 227.117188 161.472656 238.179688 175.195312 249.882812 189.71875 C 259.285156 201.382812 269.011719 213.441406 278.90625 222.898438 C 279.296875 223.273438 279.308594 223.894531 278.933594 224.285156 C 278.742188 224.488281 278.480469 224.589844 278.226562 224.589844 " fill-opacity="1" fill-rule="nonzero"/><path fill="#000000" d="M 271.652344 263.851562 C 271.140625 263.851562 270.710938 263.460938 270.675781 262.945312 C 270.640625 262.519531 269.9375 252.496094 273.261719 241.574219 C 279.0625 222.511719 285.847656 184.980469 286.324219 180.511719 C 286.789062 176.109375 288.417969 175.15625 291.890625 174.6875 C 292.425781 174.613281 292.921875 174.992188 292.992188 175.53125 C 293.066406 176.066406 292.691406 176.5625 292.152344 176.632812 C 289.496094 176.992188 288.644531 177.269531 288.277344 180.71875 C 287.78125 185.371094 281.097656 222.5625 275.136719 242.144531 C 271.925781 252.703125 272.621094 262.699219 272.628906 262.800781 C 272.671875 263.34375 272.265625 263.8125 271.726562 263.851562 C 271.699219 263.851562 271.675781 263.851562 271.652344 263.851562 " fill-opacity="1" fill-rule="nonzero"/><path fill="#000000" d="M 292.539062 299.050781 C 269.488281 299.054688 227.28125 251.476562 225.261719 249.179688 C 224.902344 248.773438 224.945312 248.152344 225.351562 247.796875 C 225.753906 247.4375 226.375 247.476562 226.734375 247.886719 C 227.222656 248.4375 270.425781 297.160156 292.355469 297.164062 C 295.09375 297.164062 297.5 296.402344 299.449219 294.691406 C 307.21875 287.878906 319.050781 264.898438 331.320312 194.121094 C 331.640625 192.253906 331.863281 190.984375 331.976562 190.445312 C 332.429688 188.246094 332.441406 184.992188 327.316406 182.1875 C 326.84375 181.929688 326.671875 181.332031 326.929688 180.855469 C 327.191406 180.382812 327.785156 180.203125 328.261719 180.464844 C 332.898438 183.007812 334.792969 186.496094 333.894531 190.84375 C 333.785156 191.375 333.570312 192.621094 333.25 194.457031 C 320.890625 265.804688 308.75 289.148438 300.746094 296.171875 C 298.464844 298.167969 295.679688 299.050781 292.539062 299.050781 " fill-opacity="1" fill-rule="nonzero"/><path fill="#000000" d="M 321.683594 192.90625 C 319.820312 192.90625 317.75 192.773438 315.484375 192.472656 C 305.105469 191.101562 290.871094 184.753906 287.351562 178.304688 C 287.09375 177.828125 287.269531 177.234375 287.746094 176.972656 C 288.222656 176.714844 288.816406 176.886719 289.078125 177.363281 C 292.269531 183.214844 306.03125 189.242188 315.738281 190.527344 C 326.425781 191.941406 331.273438 189.492188 331.941406 188.082031 C 332.171875 187.59375 332.757812 187.382812 333.25 187.621094 C 333.738281 187.851562 333.945312 188.4375 333.710938 188.925781 C 332.699219 191.054688 328.605469 192.90625 321.683594 192.90625 " fill-opacity="1" fill-rule="nonzero"/><path fill="#000000" d="M 351.875 111.914062 C 351.863281 111.914062 351.851562 111.914062 351.839844 111.914062 C 351.292969 111.894531 350.875 111.4375 350.894531 110.894531 L 352.4375 70.488281 C 352.480469 69.238281 351.503906 68.179688 350.257812 68.132812 L 302.714844 66.320312 C 301.488281 66.28125 300.414062 67.25 300.363281 68.5 L 299.230469 98.554688 C 299.210938 99.085938 298.777344 99.507812 298.25 99.507812 C 298.238281 99.507812 298.230469 99.507812 298.21875 99.507812 C 297.675781 99.488281 297.25 99.039062 297.269531 98.496094 L 297.3125 96.972656 L 298.402344 68.421875 C 298.492188 66.09375 300.480469 64.28125 302.792969 64.359375 L 350.332031 66.167969 C 352.664062 66.261719 354.484375 68.226562 354.394531 70.558594 L 352.855469 110.972656 C 352.835938 111.5 352.398438 111.914062 351.875 111.914062 " fill-opacity="1" fill-rule="nonzero"/><path fill="#000000" d="M 346.253906 177.382812 C 346.199219 177.382812 346.144531 177.382812 346.089844 177.378906 L 298.550781 175.570312 C 297.417969 175.523438 296.378906 175.042969 295.609375 174.214844 C 294.839844 173.386719 294.441406 172.308594 294.484375 171.179688 L 296.683594 113.46875 L 297.667969 113.460938 L 298.644531 113.53125 L 298.644531 113.574219 L 296.449219 171.253906 C 296.421875 171.859375 296.636719 172.433594 297.046875 172.878906 C 297.460938 173.324219 298.019531 173.582031 298.625 173.605469 L 346.164062 175.417969 C 346.757812 175.4375 347.347656 175.226562 347.789062 174.816406 C 348.238281 174.402344 348.492188 173.84375 348.515625 173.238281 L 349.410156 149.796875 C 349.433594 149.261719 349.914062 148.820312 350.410156 148.839844 C 350.945312 148.851562 351.375 149.277344 351.375 149.8125 L 351.308594 151.613281 L 350.476562 173.316406 C 350.4375 174.441406 349.953125 175.488281 349.128906 176.257812 C 348.335938 176.984375 347.324219 177.382812 346.253906 177.382812 " fill-opacity="1" fill-rule="nonzero"/><path fill="#000000" d="M 350.648438 144.113281 C 350.632812 144.113281 350.621094 144.113281 350.609375 144.113281 C 350.066406 144.089844 349.648438 143.632812 349.664062 143.09375 L 350.152344 130.351562 C 350.175781 129.808594 350.621094 129.371094 351.167969 129.371094 C 351.707031 129.390625 352.132812 129.808594 352.117188 130.347656 L 351.628906 143.167969 C 351.609375 143.695312 351.167969 144.113281 350.648438 144.113281 " fill-opacity="1" fill-rule="nonzero"/><path fill="#000000" d="M 344.90625 174.011719 C 344.859375 174.011719 344.804688 174.007812 344.753906 174.007812 L 300.199219 172.308594 C 299.117188 172.265625 298.125 171.808594 297.394531 171.011719 C 296.664062 170.21875 296.285156 169.1875 296.328125 168.105469 L 300.035156 70.957031 C 300.121094 68.726562 302.011719 66.984375 304.210938 67.0625 L 348.765625 68.761719 C 349.84375 68.800781 350.835938 69.257812 351.566406 70.058594 C 352.296875 70.851562 352.675781 71.882812 352.636719 72.960938 L 351.003906 115.664062 C 350.984375 116.203125 350.523438 116.625 349.988281 116.605469 C 349.445312 116.585938 349.023438 116.132812 349.046875 115.585938 L 350.671875 72.890625 C 350.695312 72.328125 350.5 71.796875 350.121094 71.386719 C 349.746094 70.976562 349.238281 70.742188 348.691406 70.722656 L 304.136719 69.019531 C 303.007812 68.972656 302.039062 69.878906 301.996094 71.03125 L 298.289062 168.179688 C 298.269531 168.738281 298.464844 169.273438 298.839844 169.683594 C 299.214844 170.089844 299.726562 170.328125 300.273438 170.347656 L 344.828125 172.046875 C 345.375 172.066406 345.902344 171.871094 346.304688 171.492188 C 346.710938 171.113281 346.945312 170.597656 346.96875 170.039062 L 347.761719 149.214844 L 348.742188 149.199219 L 349.722656 149.246094 L 348.929688 170.109375 C 348.886719 171.191406 348.433594 172.191406 347.644531 172.929688 C 346.894531 173.632812 345.925781 174.011719 344.90625 174.011719 " fill-opacity="1" fill-rule="nonzero"/><path fill="#000000" d="M 348.894531 146.480469 C 348.878906 146.480469 348.871094 146.480469 348.859375 146.480469 C 348.316406 146.460938 347.890625 146.011719 347.914062 145.464844 L 347.949219 144.265625 L 348.808594 121.820312 C 348.824219 121.28125 349.269531 120.851562 349.824219 120.878906 C 350.367188 120.898438 350.789062 121.355469 350.765625 121.898438 L 349.871094 145.53125 C 349.855469 146.0625 349.421875 146.480469 348.894531 146.480469 " fill-opacity="1" fill-rule="nonzero"/><path fill="#000000" d="M 291.375 182.242188 C 291.320312 182.242188 291.265625 182.242188 291.210938 182.226562 C 290.675781 182.140625 290.316406 181.632812 290.40625 181.09375 C 291.136719 176.816406 292.496094 168.140625 292.457031 165.96875 L 292.453125 165.671875 C 292.355469 160.4375 292.335938 159.351562 289.042969 147.960938 C 285.828125 136.832031 283.761719 129.191406 284.296875 124.546875 C 284.441406 123.285156 284.796875 121.710938 285.242188 119.71875 C 285.9375 116.636719 286.886719 112.414062 287.625 106.773438 C 288.003906 103.890625 288.125 101.25 288.226562 98.917969 C 288.464844 93.5625 288.644531 89.691406 292.144531 89.675781 C 296.476562 89.632812 298.664062 95.292969 299.246094 98.628906 C 300.5 105.808594 297.578125 116.429688 297.453125 116.878906 C 297.304688 117.402344 296.753906 117.707031 296.242188 117.558594 C 295.722656 117.417969 295.414062 116.875 295.558594 116.351562 C 295.589844 116.246094 298.488281 105.707031 297.3125 98.964844 C 296.953125 96.929688 295.335938 91.640625 292.164062 91.640625 C 292.164062 91.640625 292.160156 91.640625 292.152344 91.640625 C 290.589844 91.648438 290.402344 94.171875 290.191406 99.007812 C 290.082031 101.378906 289.960938 104.066406 289.570312 107.03125 C 288.824219 112.753906 287.859375 117.027344 287.160156 120.148438 C 286.722656 122.085938 286.382812 123.613281 286.246094 124.773438 C 285.753906 129.050781 287.777344 136.515625 290.929688 147.417969 C 294.292969 159.054688 294.316406 160.1875 294.414062 165.636719 L 294.421875 165.933594 C 294.476562 168.832031 292.425781 180.914062 292.34375 181.425781 C 292.261719 181.90625 291.84375 182.242188 291.375 182.242188 " fill-opacity="1" fill-rule="nonzero"/><path fill="#000000" d="M 326.195312 191.742188 C 326.152344 191.742188 326.117188 191.738281 326.078125 191.734375 C 325.539062 191.671875 325.152344 191.183594 325.21875 190.644531 L 326.910156 176.273438 C 326.976562 175.730469 327.457031 175.347656 328 175.410156 C 328.539062 175.476562 328.921875 175.964844 328.859375 176.5 L 327.164062 190.875 C 327.105469 191.375 326.683594 191.742188 326.195312 191.742188 " fill-opacity="1" fill-rule="nonzero"/><path fill="#000000" d="M 354.703125 100.3125 C 353.480469 100.3125 352.609375 100.214844 352.507812 100.203125 C 351.96875 100.144531 351.585938 99.65625 351.644531 99.117188 C 351.707031 98.578125 352.203125 98.191406 352.730469 98.253906 C 354.554688 98.457031 359.671875 98.53125 361.414062 96.417969 C 362.023438 95.683594 362.25 95.078125 362.09375 94.613281 C 361.46875 92.734375 355.273438 91.210938 352.621094 90.558594 C 352.101562 90.429688 351.773438 89.898438 351.90625 89.375 C 352.035156 88.847656 352.566406 88.523438 353.09375 88.65625 C 359.363281 90.191406 363.144531 91.558594 363.957031 93.996094 C 364.339844 95.140625 363.996094 96.378906 362.933594 97.667969 C 361.078125 99.921875 357.171875 100.3125 354.703125 100.3125 " fill-opacity="1" fill-rule="nonzero"/><path fill="#000000" d="M 350.890625 123.359375 C 350.203125 123.359375 349.550781 123.09375 348.992188 122.398438 C 346.234375 118.957031 352.453125 107.625 353.394531 106.222656 C 353.695312 105.773438 354.308594 105.652344 354.753906 105.953125 C 355.203125 106.253906 355.328125 106.867188 355.027344 107.316406 C 352.746094 110.722656 349.15625 119.460938 350.527344 121.167969 C 351.015625 121.785156 352.261719 121.007812 354.242188 119.46875 C 355.128906 118.777344 356.261719 117.636719 357.433594 116.25 C 358.859375 114.5625 359.972656 112.949219 360.296875 112.289062 C 361.414062 110.015625 361.574219 108.285156 360.773438 107.148438 C 359.230469 104.960938 354.308594 105.003906 352.539062 105.203125 C 352.011719 105.265625 351.515625 104.882812 351.453125 104.339844 C 351.390625 103.804688 351.777344 103.316406 352.316406 103.253906 C 352.621094 103.21875 359.84375 102.425781 362.378906 106.015625 C 363.625 107.785156 363.515625 110.1875 362.058594 113.15625 C 361.597656 114.085938 360.3125 115.878906 358.933594 117.515625 C 358.042969 118.566406 356.71875 120.03125 355.445312 121.023438 C 354.164062 122.015625 352.429688 123.359375 350.890625 123.359375 " fill-opacity="1" fill-rule="nonzero"/><g clip-path="url(#id1)"><path fill="#000000" d="M 352.242188 131.558594 C 351.972656 131.558594 351.710938 131.535156 351.460938 131.476562 C 350.480469 131.253906 349.753906 130.601562 349.359375 129.59375 C 347.828125 125.671875 352.507812 120.894531 352.707031 120.691406 C 353.085938 120.3125 353.710938 120.304688 354.09375 120.6875 C 354.476562 121.070312 354.480469 121.691406 354.101562 122.074219 C 352.988281 123.199219 350.304688 126.609375 351.1875 128.878906 C 351.382812 129.382812 351.65625 129.507812 351.898438 129.5625 C 353.683594 129.976562 357.894531 127.148438 361.109375 124.152344 C 362.660156 122.703125 363.320312 121.398438 363.070312 120.273438 C 362.660156 118.425781 359.863281 117.140625 358.816406 116.800781 C 358.300781 116.636719 358.019531 116.078125 358.1875 115.5625 C 358.355469 115.050781 358.902344 114.765625 359.417969 114.929688 C 359.613281 114.996094 364.246094 116.519531 364.988281 119.84375 C 365.402344 121.695312 364.546875 123.628906 362.449219 125.589844 C 360.871094 127.058594 355.753906 131.558594 352.242188 131.558594 " fill-opacity="1" fill-rule="nonzero"/></g><path fill="#000000" d="M 350.421875 150.714844 C 349.617188 150.714844 348.851562 150.550781 348.292969 150.085938 C 347.648438 149.550781 347.3125 148.695312 347.34375 147.675781 C 347.425781 145.257812 349.433594 142.390625 352.71875 140.011719 C 353.160156 139.691406 353.769531 139.792969 354.085938 140.226562 C 354.40625 140.671875 354.308594 141.285156 353.871094 141.601562 C 350.570312 143.992188 349.351562 146.402344 349.304688 147.742188 C 349.292969 148.132812 349.382812 148.433594 349.550781 148.574219 C 349.910156 148.871094 351.484375 148.886719 353.726562 147.960938 C 356.332031 146.890625 358.3125 145.167969 358.441406 143.863281 C 358.722656 141.027344 353.089844 138.726562 351.097656 138.144531 C 350.578125 137.992188 350.277344 137.445312 350.429688 136.925781 C 350.582031 136.40625 351.125 136.105469 351.644531 136.257812 C 352.59375 136.535156 360.886719 139.097656 360.394531 144.058594 C 360.144531 146.582031 357.171875 148.667969 354.476562 149.777344 C 353.792969 150.058594 352.019531 150.714844 350.421875 150.714844 " fill-opacity="1" fill-rule="nonzero"/><path fill="#92d566" d="M 335.3125 148.808594 C 335.394531 142.460938 330.054688 137.238281 323.375 137.144531 C 316.699219 137.054688 311.214844 142.128906 311.128906 148.484375 C 311.042969 154.832031 316.386719 160.058594 323.0625 160.148438 C 329.742188 160.238281 335.226562 155.164062 335.3125 148.808594 " fill-opacity="1" fill-rule="evenodd"/><path fill="#000000" d="M 323.199219 138.125 C 317.148438 138.125 312.191406 142.746094 312.109375 148.496094 C 312.070312 151.296875 313.1875 153.949219 315.246094 155.960938 C 317.316406 157.988281 320.101562 159.125 323.074219 159.164062 C 323.128906 159.164062 323.1875 159.164062 323.238281 159.164062 C 329.289062 159.164062 334.25 154.546875 334.332031 148.796875 C 334.367188 145.996094 333.253906 143.34375 331.191406 141.332031 C 329.121094 139.304688 326.335938 138.167969 323.363281 138.128906 C 323.308594 138.128906 323.253906 138.125 323.199219 138.125 Z M 323.238281 161.128906 C 323.175781 161.128906 323.113281 161.128906 323.050781 161.128906 C 319.566406 161.082031 316.3125 159.746094 313.871094 157.363281 C 311.425781 154.972656 310.101562 151.8125 310.144531 148.472656 C 310.238281 141.644531 316.078125 136.164062 323.199219 136.164062 C 323.261719 136.164062 323.324219 136.164062 323.386719 136.164062 C 326.871094 136.210938 330.128906 137.546875 332.566406 139.929688 C 335.015625 142.320312 336.335938 145.480469 336.292969 148.824219 C 336.203125 155.644531 330.359375 161.128906 323.238281 161.128906 " fill-opacity="1" fill-rule="nonzero"/><path fill="#000000" d="M 322.507812 154.300781 C 322.175781 154.300781 321.859375 154.128906 321.679688 153.84375 C 321.613281 153.742188 320.082031 151.296875 319.175781 147.605469 C 319.046875 147.074219 319.371094 146.546875 319.898438 146.417969 C 320.421875 146.292969 320.953125 146.609375 321.082031 147.136719 C 321.46875 148.71875 321.988281 150.058594 322.429688 151.035156 C 323.371094 148.988281 325.050781 145.609375 327.226562 142.449219 C 327.53125 142 328.144531 141.886719 328.59375 142.195312 C 329.039062 142.5 329.148438 143.109375 328.84375 143.558594 C 325.609375 148.261719 323.441406 153.628906 323.417969 153.683594 C 323.28125 154.023438 322.964844 154.261719 322.601562 154.296875 C 322.566406 154.296875 322.539062 154.300781 322.507812 154.300781 " fill-opacity="1" fill-rule="nonzero"/><path fill="#000000" d="M 334.292969 95.671875 C 334.277344 95.671875 334.265625 95.671875 334.253906 95.671875 L 316.78125 95.066406 L 316.769531 94.082031 L 316.816406 93.101562 L 334.324219 93.707031 C 334.867188 93.726562 335.292969 94.179688 335.269531 94.722656 C 335.253906 95.253906 334.816406 95.671875 334.292969 95.671875 " fill-opacity="1" fill-rule="nonzero"/><path fill="#000000" d="M 332.539062 130.820312 C 332.527344 130.820312 332.417969 130.820312 332.40625 130.820312 L 305.527344 129.890625 C 305.269531 129.882812 305.019531 129.769531 304.839844 129.578125 C 304.664062 129.386719 304.570312 129.128906 304.582031 128.871094 L 305.578125 102.65625 C 305.59375 102.125 306.03125 101.707031 306.554688 101.707031 C 306.566406 101.707031 306.582031 101.707031 306.59375 101.710938 C 307.132812 101.726562 307.554688 102.183594 307.535156 102.726562 L 306.582031 127.960938 L 332.476562 128.855469 C 333.007812 128.875 333.480469 129.320312 333.46875 129.859375 C 333.464844 130.390625 333.074219 130.820312 332.539062 130.820312 " fill-opacity="1" fill-rule="nonzero"/><path fill="#000000" d="M 342.382812 120.777344 L 341.402344 120.730469 L 341.4375 119.546875 L 341.976562 103.996094 C 341.996094 103.453125 342.457031 103.007812 342.988281 103.046875 C 343.535156 103.066406 343.957031 103.511719 343.941406 104.058594 L 343.367188 120.730469 L 342.382812 120.777344 " fill-opacity="1" fill-rule="nonzero"/><path fill="#000000" d="M 306.71875 98.941406 L 312.65625 99.148438 L 312.859375 93.359375 L 306.917969 93.152344 Z M 313.605469 101.144531 C 313.59375 101.144531 313.582031 101.144531 313.574219 101.144531 L 305.667969 100.871094 C 305.125 100.855469 304.699219 100.394531 304.722656 99.855469 L 304.992188 92.105469 C 305 91.84375 305.109375 91.59375 305.300781 91.421875 C 305.492188 91.242188 305.742188 91.140625 306.003906 91.15625 L 313.90625 91.425781 C 314.449219 91.449219 314.875 91.898438 314.855469 92.441406 L 314.589844 100.199219 C 314.582031 100.457031 314.46875 100.703125 314.277344 100.882812 C 314.09375 101.050781 313.855469 101.144531 313.605469 101.144531 " fill-opacity="1" fill-rule="nonzero"/><path fill="#000000" d="M 312.136719 93.839844 L 307.503906 93.675781 L 307.34375 98.332031 L 311.976562 98.496094 L 312.136719 93.839844 " fill-opacity="1" fill-rule="evenodd"/><path fill="#000000" d="M 341.179688 104.128906 L 339.234375 104.066406 L 339.046875 109.554688 L 340.988281 109.621094 L 341.179688 104.128906 " fill-opacity="1" fill-rule="evenodd"/><path fill="#000000" d="M 340.203125 103.058594 L 336.21875 102.921875 L 336.167969 104.585938 L 340.144531 104.722656 L 340.203125 103.058594 " fill-opacity="1" fill-rule="evenodd"/><path fill="#000000" d="M 338.816406 109.453125 L 337.128906 109.394531 L 337.035156 112.121094 L 338.722656 112.175781 L 338.816406 109.453125 " fill-opacity="1" fill-rule="evenodd"/><path fill="#000000" d="M 334.570312 96.289062 L 327.453125 96.042969 L 327.394531 97.660156 L 334.511719 97.90625 L 334.570312 96.289062 " fill-opacity="1" fill-rule="evenodd"/><path fill="#000000" d="M 330.296875 96.78125 L 328.703125 96.726562 L 328.582031 100.199219 L 330.175781 100.253906 L 330.296875 96.78125 " fill-opacity="1" fill-rule="evenodd"/><path fill="#000000" d="M 324.113281 96.132812 L 316.226562 95.855469 L 316.167969 97.59375 L 324.054688 97.867188 L 324.113281 96.132812 " fill-opacity="1" fill-rule="evenodd"/><path fill="#000000" d="M 327.675781 98.082031 L 324.925781 97.988281 L 324.8125 101.246094 L 327.5625 101.339844 L 327.675781 98.082031 " fill-opacity="1" fill-rule="evenodd"/><path fill="#000000" d="M 340.386719 112.527344 L 338.582031 112.464844 L 338.480469 115.433594 L 340.285156 115.5 L 340.386719 112.527344 " fill-opacity="1" fill-rule="evenodd"/><path fill="#000000" d="M 337.347656 117.390625 L 335.808594 117.339844 L 335.753906 118.90625 L 337.292969 118.960938 L 337.347656 117.390625 " fill-opacity="1" fill-rule="evenodd"/><path fill="#000000" d="M 338.613281 115.351562 L 330.675781 115.082031 L 330.621094 116.621094 L 338.558594 116.898438 L 338.613281 115.351562 " fill-opacity="1" fill-rule="evenodd"/><path fill="#000000" d="M 337.625 103.050781 L 336.105469 102.996094 L 335.792969 112.058594 L 337.308594 112.113281 L 337.625 103.050781 " fill-opacity="1" fill-rule="evenodd"/><path fill="#000000" d="M 337.238281 109.800781 L 330.816406 109.574219 L 330.769531 111.027344 L 337.183594 111.246094 L 337.238281 109.800781 " fill-opacity="1" fill-rule="evenodd"/><path fill="#000000" d="M 333.675781 99.09375 L 329.210938 98.9375 L 329.136719 100.953125 L 333.601562 101.109375 L 333.675781 99.09375 " fill-opacity="1" fill-rule="evenodd"/><path fill="#000000" d="M 334.5 102.195312 L 332.234375 102.113281 L 332.015625 108.410156 L 334.285156 108.488281 L 334.5 102.195312 " fill-opacity="1" fill-rule="evenodd"/><path fill="#000000" d="M 334.289062 106.363281 L 328.234375 106.152344 L 328.160156 108.292969 L 334.210938 108.5 L 334.289062 106.363281 " fill-opacity="1" fill-rule="evenodd"/><path fill="#000000" d="M 330.898438 102.421875 L 328.359375 102.332031 L 328.269531 104.972656 L 330.804688 105.0625 L 330.898438 102.421875 " fill-opacity="1" fill-rule="evenodd"/><path fill="#000000" d="M 332.558594 105.355469 L 330.871094 105.296875 L 330.804688 107.242188 L 332.492188 107.300781 L 332.558594 105.355469 " fill-opacity="1" fill-rule="evenodd"/><path fill="#000000" d="M 334.652344 116.308594 L 333.035156 116.253906 L 332.828125 122.207031 L 334.445312 122.261719 L 334.652344 116.308594 " fill-opacity="1" fill-rule="evenodd"/><path fill="#000000" d="M 340.433594 119.546875 L 336.722656 119.421875 L 336.664062 121.050781 L 340.378906 121.179688 L 340.433594 119.546875 " fill-opacity="1" fill-rule="evenodd"/><path fill="#000000" d="M 309.84375 114.476562 L 319.371094 114.804688 L 319.3125 116.46875 L 309.785156 116.140625 L 309.84375 114.476562 " fill-opacity="1" fill-rule="evenodd"/><path fill="#000000" d="M 307.726562 117.335938 L 314.605469 117.574219 L 314.554688 119.117188 L 307.671875 118.878906 L 307.726562 117.335938 " fill-opacity="1" fill-rule="evenodd"/><path fill="#000000" d="M 308.46875 101.976562 L 309.988281 102.03125 L 309.578125 113.964844 L 308.058594 113.914062 L 308.46875 101.976562 " fill-opacity="1" fill-rule="evenodd"/><path fill="#000000" d="M 308.425781 111.851562 L 314.84375 112.070312 L 314.789062 113.519531 L 308.375 113.300781 L 308.425781 111.851562 " fill-opacity="1" fill-rule="evenodd"/><path fill="#000000" d="M 310.824219 103.011719 L 313.085938 103.089844 L 312.871094 109.386719 L 310.601562 109.308594 L 310.824219 103.011719 " fill-opacity="1" fill-rule="evenodd"/><path fill="#000000" d="M 311.605469 108.628906 L 317.660156 108.839844 L 317.585938 110.972656 L 311.535156 110.765625 L 311.605469 108.628906 " fill-opacity="1" fill-rule="evenodd"/><path fill="#000000" d="M 315.222656 106 L 316.9375 106.058594 L 316.878906 107.625 L 315.167969 107.570312 L 315.222656 106 " fill-opacity="1" fill-rule="evenodd"/><path fill="#000000" d="M 313.398438 107.742188 L 315.085938 107.800781 L 315.019531 109.746094 L 313.332031 109.6875 L 313.398438 107.742188 " fill-opacity="1" fill-rule="evenodd"/><path fill="#000000" d="M 308.933594 118.257812 L 310.550781 118.3125 L 310.253906 126.980469 L 308.632812 126.921875 L 308.933594 118.257812 " fill-opacity="1" fill-rule="evenodd"/><path fill="#000000" d="M 318.21875 119.652344 L 321.828125 119.773438 L 321.78125 121.109375 L 318.171875 120.984375 L 318.21875 119.652344 " fill-opacity="1" fill-rule="evenodd"/><path fill="#000000" d="M 309.765625 124.078125 L 312.222656 124.164062 L 312.179688 125.402344 L 309.722656 125.320312 L 309.765625 124.078125 " fill-opacity="1" fill-rule="evenodd"/><path fill="#000000" d="M 308.722656 125.753906 L 314.761719 125.960938 L 314.722656 127.132812 L 308.679688 126.921875 L 308.722656 125.753906 " fill-opacity="1" fill-rule="evenodd"/><path fill="#000000" d="M 311.046875 118.214844 L 312.570312 118.265625 L 312.410156 122.761719 L 310.890625 122.710938 L 311.046875 118.214844 " fill-opacity="1" fill-rule="evenodd"/><path fill="#000000" d="M 309.375 114.960938 L 307.976562 114.914062 L 307.929688 116.359375 L 309.320312 116.410156 L 309.375 114.960938 " fill-opacity="1" fill-rule="evenodd"/><path fill="#000000" d="M 323.417969 97.3125 L 322.09375 97.265625 L 322.035156 99.042969 L 323.351562 99.085938 L 323.417969 97.3125 " fill-opacity="1" fill-rule="evenodd"/><path fill="#000000" d="M 309.492188 119.824219 L 307.691406 119.761719 L 307.507812 125.089844 L 309.308594 125.152344 L 309.492188 119.824219 " fill-opacity="1" fill-rule="evenodd"/><path fill="#000000" d="M 333.675781 126.054688 L 325.5625 125.777344 L 325.5 127.582031 L 333.613281 127.863281 L 333.675781 126.054688 " fill-opacity="1" fill-rule="evenodd"/><path fill="#000000" d="M 329.308594 114.949219 L 327.539062 114.890625 L 327.128906 126.804688 L 328.898438 126.867188 L 329.308594 114.949219 " fill-opacity="1" fill-rule="evenodd"/><path fill="#000000" d="M 328.261719 117.175781 L 324.367188 117.042969 L 324.296875 119.125 L 328.1875 119.257812 L 328.261719 117.175781 " fill-opacity="1" fill-rule="evenodd"/><path fill="#000000" d="M 328 120.675781 L 325.289062 120.585938 L 325.207031 122.910156 L 327.917969 123.007812 L 328 120.675781 " fill-opacity="1" fill-rule="evenodd"/><path fill="#000000" d="M 326.148438 101.800781 L 323.09375 101.695312 L 322.996094 104.507812 L 326.050781 104.617188 L 326.148438 101.800781 " fill-opacity="1" fill-rule="evenodd"/><path fill="#000000" d="M 324.101562 100.582031 L 319.933594 100.4375 L 319.847656 103.042969 L 324.011719 103.1875 L 324.101562 100.582031 " fill-opacity="1" fill-rule="evenodd"/><path fill="#000000" d="M 320.503906 98.277344 L 316.859375 98.15625 L 316.75 101.332031 L 320.398438 101.457031 L 320.503906 98.277344 " fill-opacity="1" fill-rule="evenodd"/><path fill="#000000" d="M 318.273438 102.121094 L 314.417969 101.988281 L 314.308594 105.121094 L 318.164062 105.257812 L 318.273438 102.121094 " fill-opacity="1" fill-rule="evenodd"/><path fill="#000000" d="M 326.488281 105.917969 L 324.828125 105.859375 L 324.464844 116.277344 L 326.132812 116.339844 L 326.488281 105.917969 " fill-opacity="1" fill-rule="evenodd"/><path fill="#000000" d="M 332.914062 112.261719 L 325.203125 111.992188 L 325.144531 113.695312 L 332.855469 113.960938 L 332.914062 112.261719 " fill-opacity="1" fill-rule="evenodd"/><path fill="#000000" d="M 328.078125 109.34375 L 325.332031 109.25 L 325.277344 110.882812 L 328.023438 110.976562 L 328.078125 109.34375 " fill-opacity="1" fill-rule="evenodd"/><path fill="#000000" d="M 325.226562 107.332031 L 320.78125 107.179688 L 320.714844 109.125 L 325.160156 109.277344 L 325.226562 107.332031 " fill-opacity="1" fill-rule="evenodd"/><path fill="#000000" d="M 323.441406 106.644531 L 320.246094 106.53125 L 319.996094 113.828125 L 323.191406 113.9375 L 323.441406 106.644531 " fill-opacity="1" fill-rule="evenodd"/><path fill="#000000" d="M 323.03125 115.5 L 320.84375 115.421875 L 320.738281 118.410156 L 322.929688 118.488281 L 323.03125 115.5 " fill-opacity="1" fill-rule="evenodd"/><path fill="#000000" d="M 324.285156 120.515625 L 320.8125 120.394531 L 320.578125 127.242188 L 324.046875 127.359375 L 324.285156 120.515625 " fill-opacity="1" fill-rule="evenodd"/><path fill="#000000" d="M 322.621094 122.476562 L 318.207031 122.324219 L 318.125 124.71875 L 322.535156 124.871094 L 322.621094 122.476562 " fill-opacity="1" fill-rule="evenodd"/><path fill="#000000" d="M 318.847656 125.894531 L 316.453125 125.808594 L 316.417969 126.886719 L 318.8125 126.96875 L 318.847656 125.894531 " fill-opacity="1" fill-rule="evenodd"/><path fill="#000000" d="M 316.582031 121.050781 L 314.046875 120.960938 L 313.917969 124.644531 L 316.453125 124.730469 L 316.582031 121.050781 " fill-opacity="1" fill-rule="evenodd"/><path fill="#000000" d="M 318.855469 118.902344 L 317.292969 118.847656 L 317.210938 121.28125 L 318.769531 121.332031 L 318.855469 118.902344 " fill-opacity="1" fill-rule="evenodd"/><path fill="#000000" d="M 319.566406 117.988281 L 316.097656 117.867188 L 316.050781 119.222656 L 319.523438 119.34375 L 319.566406 117.988281 " fill-opacity="1" fill-rule="evenodd"/><path fill="#000000" d="M 318.726562 112.289062 L 316.539062 112.214844 L 316.492188 113.53125 L 318.683594 113.609375 L 318.726562 112.289062 " fill-opacity="1" fill-rule="evenodd"/><path fill="#000000" d="M 319.507812 104.601562 L 319.433594 107.292969 L 321.421875 107.34375 L 321.492188 104.660156 L 319.507812 104.601562 " fill-opacity="1" fill-rule="evenodd"/><path fill="#000000" d="M 336.246094 130.203125 L 342.183594 130.40625 L 342.382812 124.617188 L 336.441406 124.414062 Z M 343.132812 132.402344 C 343.117188 132.402344 343.109375 132.402344 343.097656 132.402344 L 335.191406 132.132812 C 334.652344 132.113281 334.226562 131.660156 334.246094 131.117188 L 334.515625 123.359375 C 334.523438 123.101562 334.632812 122.855469 334.824219 122.679688 C 335.015625 122.503906 335.269531 122.40625 335.527344 122.417969 L 343.433594 122.6875 C 343.972656 122.707031 344.398438 123.164062 344.378906 123.703125 L 344.113281 131.457031 C 344.105469 131.714844 343.992188 131.964844 343.796875 132.140625 C 343.617188 132.3125 343.378906 132.402344 343.132812 132.402344 " fill-opacity="1" fill-rule="nonzero"/><path fill="#000000" d="M 341.664062 125.097656 L 337.027344 124.9375 L 336.867188 129.59375 L 341.503906 129.753906 L 341.664062 125.097656 " fill-opacity="1" fill-rule="evenodd"/><path fill="#000000" d="M 337.558594 100.101562 L 343.503906 100.304688 L 343.699219 94.515625 L 337.757812 94.3125 Z M 344.449219 102.304688 C 344.4375 102.304688 344.425781 102.304688 344.414062 102.304688 L 336.511719 102.03125 C 335.96875 102.011719 335.546875 101.554688 335.5625 101.011719 L 335.828125 93.261719 C 335.839844 93.003906 335.953125 92.753906 336.144531 92.578125 C 336.332031 92.402344 336.582031 92.300781 336.847656 92.316406 L 344.75 92.585938 C 345.011719 92.597656 345.257812 92.707031 345.433594 92.898438 C 345.613281 93.089844 345.707031 93.339844 345.695312 93.601562 L 345.429688 101.355469 C 345.410156 101.886719 344.976562 102.304688 344.449219 102.304688 " fill-opacity="1" fill-rule="nonzero"/><path fill="#000000" d="M 342.984375 94.996094 L 338.347656 94.835938 L 338.1875 99.492188 L 342.820312 99.652344 L 342.984375 94.996094 " fill-opacity="1" fill-rule="evenodd"/><path fill="#000000" d="M 332.882812 122.0625 L 329.714844 121.949219 L 329.550781 126.6875 L 332.71875 126.796875 L 332.882812 122.0625 " fill-opacity="1" fill-rule="evenodd"/><path fill="#000000" d="M 335.898438 112.261719 L 333.433594 112.175781 L 333.378906 113.746094 L 335.839844 113.832031 L 335.898438 112.261719 " fill-opacity="1" fill-rule="evenodd"/><path fill="#000000" d="M 331.703125 117.617188 L 330.269531 117.570312 L 330.175781 120.355469 L 331.601562 120.40625 L 331.703125 117.617188 " fill-opacity="1" fill-rule="evenodd"/><path fill="#000000" d="M 123.449219 192.777344 C 109.15625 192.777344 92.71875 184.46875 82.355469 174.023438 C 81.972656 173.636719 81.976562 173.015625 82.363281 172.632812 C 82.746094 172.25 83.371094 172.253906 83.75 172.640625 C 96.574219 185.566406 118.910156 195.167969 134.089844 188.847656 C 143.953125 184.742188 150.753906 171.882812 154.292969 150.628906 C 154.382812 150.09375 154.882812 149.730469 155.421875 149.824219 C 155.957031 149.914062 156.316406 150.417969 156.230469 150.953125 C 152.570312 172.917969 145.375 186.28125 134.84375 190.660156 C 131.339844 192.121094 127.480469 192.777344 123.449219 192.777344 " fill-opacity="1" fill-rule="nonzero"/><path fill="#000000" d="M 81.0625 77.667969 C 77.8125 77.667969 75.65625 77.265625 75.59375 77.253906 C 75.105469 77.160156 74.765625 76.714844 74.800781 76.214844 C 74.839844 75.722656 75.246094 75.332031 75.742188 75.308594 C 76.472656 75.28125 93.667969 74.355469 96.410156 55.554688 C 96.492188 55.019531 96.988281 54.648438 97.523438 54.726562 C 98.0625 54.804688 98.433594 55.304688 98.355469 55.839844 C 96.546875 68.214844 88.738281 73.460938 82.8125 75.671875 C 88.769531 75.398438 97.351562 73.550781 103.339844 66.101562 C 105.792969 63.050781 107.292969 58.328125 108.742188 53.757812 C 111.039062 46.527344 113.414062 39.050781 119.847656 39.050781 C 119.902344 39.050781 119.960938 39.050781 120.023438 39.054688 C 120.5625 39.066406 120.992188 39.515625 120.980469 40.054688 C 120.972656 40.597656 120.511719 41.003906 119.980469 41.015625 C 119.941406 41.015625 119.902344 41.015625 119.859375 41.015625 C 114.847656 41.015625 112.792969 47.496094 110.613281 54.355469 C 109.109375 59.09375 107.550781 63.992188 104.871094 67.332031 C 97.78125 76.152344 87.371094 77.667969 81.0625 77.667969 " fill-opacity="1" fill-rule="nonzero"/><path fill="#000000" d="M 157.84375 84.445312 C 153.398438 84.445312 147.917969 83.167969 143.746094 78.074219 C 139.851562 73.324219 137.347656 66.636719 134.921875 60.171875 C 132.214844 52.953125 129.664062 46.140625 125.414062 41.957031 C 125.027344 41.578125 125.023438 40.953125 125.402344 40.566406 C 125.785156 40.179688 126.40625 40.175781 126.792969 40.558594 C 131.347656 45.042969 134.097656 52.382812 136.761719 59.476562 C 139.128906 65.796875 141.578125 72.332031 145.261719 76.832031 C 150.363281 83.050781 157.550781 82.933594 161.710938 82.1875 C 157.242188 80.480469 149.695312 76.121094 146.183594 65.582031 C 146.007812 65.0625 146.285156 64.507812 146.800781 64.335938 C 147.316406 64.167969 147.875 64.445312 148.042969 64.957031 C 152.71875 78.984375 165.019531 81.179688 165.539062 81.269531 C 165.976562 81.339844 166.3125 81.695312 166.359375 82.140625 C 166.402344 82.578125 166.144531 82.996094 165.730469 83.15625 C 165.664062 83.179688 162.265625 84.445312 157.84375 84.445312 " fill-opacity="1" fill-rule="nonzero"/><path fill="#000000" d="M 56.9375 151.890625 C 56.621094 151.890625 56.304688 151.738281 56.117188 151.453125 C 41.71875 129.746094 62.519531 105.023438 74.949219 90.257812 C 75.660156 89.410156 76.34375 88.597656 76.996094 87.816406 C 79.308594 85.042969 81.441406 82.257812 83.339844 79.550781 C 83.648438 79.105469 84.261719 78.996094 84.707031 79.308594 C 85.152344 79.621094 85.261719 80.230469 84.949219 80.675781 C 83.019531 83.429688 80.851562 86.257812 78.5 89.074219 C 77.847656 89.859375 77.160156 90.675781 76.449219 91.519531 C 64.375 105.871094 44.167969 129.886719 57.753906 150.367188 C 58.054688 150.820312 57.929688 151.429688 57.476562 151.730469 C 57.308594 151.839844 57.125 151.890625 56.9375 151.890625 " fill-opacity="1" fill-rule="nonzero"/><path fill="#000000" d="M 180.941406 125.699219 C 180.726562 125.699219 180.515625 125.628906 180.332031 125.484375 C 179.90625 125.148438 179.835938 124.53125 180.171875 124.109375 C 180.265625 123.988281 189.742188 111.816406 185.832031 101.402344 C 184.117188 96.84375 182.425781 94.679688 180.464844 92.171875 C 177.609375 88.527344 174.375 84.394531 170.066406 72.109375 C 169.882812 71.59375 170.15625 71.035156 170.664062 70.851562 C 171.175781 70.671875 171.734375 70.945312 171.914062 71.457031 C 176.121094 83.4375 179.25 87.433594 182.007812 90.960938 C 183.984375 93.484375 185.851562 95.867188 187.667969 100.710938 C 191.972656 112.167969 182.132812 124.792969 181.710938 125.328125 C 181.519531 125.570312 181.230469 125.699219 180.941406 125.699219 " fill-opacity="1" fill-rule="nonzero"/><path fill="#000000" d="M 189.015625 149.492188 C 188.945312 149.492188 188.875 149.488281 188.804688 149.46875 C 188.273438 149.355469 187.941406 148.832031 188.054688 148.300781 C 191.09375 134.496094 184.140625 126.324219 184.070312 126.246094 C 183.714844 125.835938 183.753906 125.21875 184.164062 124.859375 C 184.570312 124.503906 185.191406 124.546875 185.546875 124.949219 C 185.859375 125.308594 193.230469 133.90625 189.972656 148.726562 C 189.867188 149.183594 189.464844 149.492188 189.015625 149.492188 " fill-opacity="1" fill-rule="nonzero"/><path fill="#000000" d="M 173.535156 96.511719 C 173.695312 99.046875 174.164062 103.070312 175.515625 106.335938 C 177.050781 110.054688 178.378906 112.667969 179.039062 113.902344 C 180.09375 113.25 181.839844 111.660156 181.207031 108.492188 C 180.363281 104.292969 176.015625 99.164062 173.535156 96.511719 Z M 178.632812 116.179688 C 178.292969 116.179688 177.96875 116.003906 177.789062 115.695312 C 177.710938 115.566406 175.941406 112.511719 173.699219 107.089844 C 171.40625 101.542969 171.480469 94.3125 171.488281 94.007812 C 171.496094 93.617188 171.730469 93.269531 172.089844 93.117188 C 172.445312 92.960938 172.863281 93.039062 173.144531 93.308594 C 173.496094 93.644531 181.824219 101.589844 183.128906 108.109375 C 184.097656 112.945312 180.824219 115.464844 178.964844 116.125 C 178.851562 116.160156 178.742188 116.179688 178.632812 116.179688 " fill-opacity="1" fill-rule="nonzero"/><path fill="#000000" d="M 165.871094 150.734375 C 165.757812 150.734375 165.636719 150.710938 165.523438 150.667969 C 165.019531 150.472656 164.761719 149.910156 164.953125 149.398438 C 168.71875 139.460938 168.816406 127.445312 165.210938 118.050781 C 165.015625 117.542969 165.269531 116.976562 165.773438 116.78125 C 166.277344 116.589844 166.847656 116.839844 167.042969 117.347656 C 170.816406 127.171875 170.722656 139.71875 166.789062 150.097656 C 166.636719 150.488281 166.265625 150.734375 165.871094 150.734375 " fill-opacity="1" fill-rule="nonzero"/><path fill="#000000" d="M 169.886719 65.644531 C 169.875 65.644531 169.863281 65.644531 169.851562 65.640625 C 169.3125 65.628906 168.886719 65.175781 168.902344 64.632812 C 169.507812 45.257812 155.433594 27.734375 151.109375 22.824219 C 148.140625 19.460938 137.636719 8.59375 126.847656 10.007812 C 126.3125 10.074219 125.820312 9.699219 125.75 9.160156 C 125.679688 8.621094 126.058594 8.128906 126.59375 8.058594 C 138.335938 6.53125 149.453125 17.976562 152.582031 21.527344 C 158.28125 27.996094 171.476562 45.148438 170.867188 64.691406 C 170.847656 65.226562 170.414062 65.644531 169.886719 65.644531 " fill-opacity="1" fill-rule="nonzero"/><path fill="#000000" d="M 123.507812 30.613281 C 123.121094 30.613281 122.753906 30.382812 122.597656 30.003906 C 121.464844 27.261719 118.902344 23.839844 115.140625 22.457031 C 111.867188 21.257812 108.144531 21.707031 104.066406 23.796875 C 103.582031 24.042969 102.992188 23.855469 102.746094 23.371094 C 102.496094 22.886719 102.6875 22.296875 103.171875 22.046875 C 107.757812 19.699219 112.007812 19.214844 115.8125 20.609375 C 121.300781 22.628906 123.78125 27.734375 124.410156 29.253906 C 124.621094 29.753906 124.382812 30.328125 123.878906 30.535156 C 123.757812 30.585938 123.628906 30.613281 123.507812 30.613281 " fill-opacity="1" fill-rule="nonzero"/><path fill="#000000" d="M 46.726562 99.71875 C 46.707031 99.71875 46.691406 99.71875 46.671875 99.714844 C 46.132812 99.6875 45.714844 99.226562 45.746094 98.683594 C 45.890625 95.929688 45.96875 92.875 46.050781 89.640625 C 46.398438 75.722656 46.835938 58.398438 53.175781 44.765625 C 61.246094 27.402344 79.460938 11.644531 92.496094 5.628906 C 104.648438 0.0234375 120.453125 3.628906 125.652344 13.203125 C 125.910156 13.675781 125.734375 14.273438 125.257812 14.535156 C 124.78125 14.789062 124.1875 14.617188 123.925781 14.140625 C 119.273438 5.570312 104.394531 2.300781 93.316406 7.410156 C 80.597656 13.28125 62.832031 28.65625 54.957031 45.589844 C 48.789062 58.859375 48.359375 75.953125 48.011719 89.691406 C 47.929688 92.9375 47.855469 96.007812 47.703125 98.789062 C 47.675781 99.3125 47.242188 99.71875 46.726562 99.71875 " fill-opacity="1" fill-rule="nonzero"/><path fill="#000000" d="M 57.96875 229.859375 C 57.546875 229.859375 57.15625 229.59375 57.03125 229.167969 C 56.871094 228.648438 57.164062 228.097656 57.679688 227.941406 C 74.621094 222.753906 75.535156 202.839844 73.402344 191.886719 C 73.027344 189.953125 74.238281 187.941406 76.078125 184.898438 C 78.988281 180.078125 83.382812 172.792969 84.5 160.351562 C 85.648438 147.617188 84.71875 135.390625 76.53125 107.308594 C 76.382812 106.789062 76.679688 106.242188 77.199219 106.089844 C 77.71875 105.9375 78.265625 106.238281 78.417969 106.757812 C 86.691406 135.140625 87.625 147.550781 86.453125 160.527344 C 85.296875 173.417969 80.757812 180.9375 77.757812 185.914062 C 76.214844 188.472656 75.101562 190.320312 75.332031 191.511719 C 77.589844 203.105469 76.53125 224.222656 58.257812 229.816406 C 58.160156 229.847656 58.0625 229.859375 57.96875 229.859375 " fill-opacity="1" fill-rule="nonzero"/><path fill="#000000" d="M 64.167969 247.613281 C 62.476562 247.613281 60.644531 247.359375 58.757812 246.6875 C 52.878906 244.597656 48.261719 239.085938 45.035156 230.304688 C 44.851562 229.796875 45.109375 229.230469 45.621094 229.046875 C 46.128906 228.855469 46.695312 229.117188 46.878906 229.628906 C 49.890625 237.824219 54.097656 242.9375 59.390625 244.828125 C 62.613281 245.984375 65.71875 245.71875 68.042969 245.148438 C 66.078125 244.695312 63.699219 243.75 61.335938 241.832031 C 55.25 236.90625 51.777344 227.773438 51.011719 214.671875 C 50.980469 214.132812 51.390625 213.667969 51.933594 213.636719 C 52.476562 213.601562 52.941406 214.019531 52.96875 214.554688 C 53.703125 227.046875 56.917969 235.699219 62.527344 240.269531 C 67.351562 244.203125 72.3125 243.527344 72.359375 243.527344 C 72.832031 243.453125 73.277344 243.726562 73.429688 244.167969 C 73.585938 244.613281 73.410156 245.101562 73.007812 245.339844 C 72.800781 245.460938 69.101562 247.613281 64.167969 247.613281 " fill-opacity="1" fill-rule="nonzero"/><path fill="#000000" d="M 66.097656 195.96875 C 64.730469 198.539062 62.472656 202.9375 60.757812 207.074219 C 58.917969 211.53125 58.773438 217.355469 58.835938 220.273438 C 61.007812 218.46875 65.003906 214.539062 66.226562 209.199219 C 67.375 204.167969 66.6875 198.929688 66.097656 195.96875 Z M 57.9375 223.175781 C 57.792969 223.175781 57.640625 223.136719 57.507812 223.070312 C 57.195312 222.917969 56.988281 222.617188 56.957031 222.269531 C 56.929688 221.894531 56.21875 212.933594 58.949219 206.324219 C 61.609375 199.882812 65.558594 192.84375 65.597656 192.773438 C 65.792969 192.429688 66.171875 192.234375 66.5625 192.277344 C 66.953125 192.320312 67.277344 192.59375 67.394531 192.96875 C 67.5 193.3125 69.984375 201.558594 68.140625 209.640625 C 66.261719 217.84375 58.792969 222.804688 58.476562 223.007812 C 58.3125 223.117188 58.125 223.175781 57.9375 223.175781 " fill-opacity="1" fill-rule="nonzero"/><path fill="#000000" d="M 51.492188 241.792969 C 51.433594 241.792969 51.375 241.792969 51.320312 241.777344 C 45 240.640625 40.488281 237.691406 37.90625 233.019531 C 32.234375 222.75 37.359375 206.359375 40.917969 197.5 C 41.113281 196.996094 41.6875 196.75 42.191406 196.957031 C 42.691406 197.15625 42.941406 197.726562 42.738281 198.230469 C 39.308594 206.769531 34.34375 222.507812 39.625 232.066406 C 41.910156 236.203125 45.960938 238.816406 51.667969 239.847656 C 52.199219 239.945312 52.550781 240.453125 52.457031 240.988281 C 52.371094 241.460938 51.960938 241.792969 51.492188 241.792969 " fill-opacity="1" fill-rule="nonzero"/><path fill="#000000" d="M 56.386719 168.363281 C 56.128906 168.363281 55.871094 168.261719 55.675781 168.0625 C 55.300781 167.667969 55.316406 167.046875 55.707031 166.671875 C 67.21875 155.664062 70.644531 141.855469 68.347656 115.730469 C 68.296875 115.191406 68.699219 114.714844 69.238281 114.664062 C 69.777344 114.621094 70.253906 115.015625 70.300781 115.558594 C 72.664062 142.367188 69.074219 156.609375 57.066406 168.089844 C 56.875 168.277344 56.628906 168.363281 56.386719 168.363281 " fill-opacity="1" fill-rule="nonzero"/><path fill="#000000" d="M 38.746094 205.734375 C 38.503906 205.734375 38.257812 205.648438 38.070312 205.464844 C 26.386719 194.277344 16.167969 174.917969 20.035156 163.144531 C 21.332031 159.195312 24.539062 154.394531 28.253906 148.835938 C 35.96875 137.292969 45.566406 122.925781 45.402344 106.273438 C 45.398438 105.730469 45.832031 105.285156 46.375 105.28125 C 46.902344 105.277344 47.363281 105.707031 47.367188 106.25 C 47.535156 123.511719 37.75 138.160156 29.886719 149.925781 C 26.25 155.363281 23.113281 160.058594 21.898438 163.757812 C 18.386719 174.453125 28.125 193.226562 39.425781 204.042969 C 39.816406 204.421875 39.828125 205.039062 39.453125 205.433594 C 39.261719 205.636719 39.007812 205.734375 38.746094 205.734375 " fill-opacity="1" fill-rule="nonzero"/><path fill="#000000" d="M 38.742188 152.625 C 36.214844 157.417969 31.324219 168.304688 32.613281 178.710938 C 33.253906 183.863281 34.859375 187.449219 37.378906 189.375 C 39.125 190.710938 40.835938 190.851562 41.59375 190.839844 C 43.460938 188.015625 47.628906 181.464844 48.328125 179.269531 C 48.265625 179.121094 47.636719 178.429688 47.128906 177.875 C 45.816406 176.433594 43.824219 174.261719 42.609375 170.78125 C 40.679688 165.269531 39.355469 156.996094 38.742188 152.625 Z M 41.535156 192.804688 C 40.445312 192.804688 38.34375 192.558594 36.238281 190.972656 C 33.253906 188.726562 31.378906 184.679688 30.667969 178.953125 C 28.867188 164.4375 38.109375 149.675781 38.503906 149.050781 C 38.726562 148.703125 39.144531 148.53125 39.550781 148.621094 C 39.957031 148.714844 40.257812 149.050781 40.304688 149.464844 C 40.320312 149.597656 41.867188 162.710938 44.464844 170.136719 C 45.546875 173.230469 47.296875 175.152344 48.582031 176.550781 C 49.6875 177.765625 50.566406 178.71875 50.199219 179.867188 C 49.226562 182.90625 43.21875 191.945312 42.960938 192.332031 C 42.808594 192.554688 42.566406 192.710938 42.296875 192.753906 C 42.257812 192.761719 41.984375 192.804688 41.535156 192.804688 " fill-opacity="1" fill-rule="nonzero"/><path fill="#ffffff" d="M 101.140625 112.414062 C 101.140625 112.414062 107.96875 113.585938 115.574219 113.515625 C 121.65625 113.457031 128.589844 112.539062 128.589844 112.539062 C 128.589844 112.539062 126.359375 126.019531 116.578125 126.632812 C 104.71875 127.375 101.140625 112.414062 101.140625 112.414062 " fill-opacity="1" fill-rule="evenodd"/><path fill="#000000" d="M 102.535156 113.617188 C 103.761719 117.195312 107.746094 126.210938 116.519531 125.652344 C 123.671875 125.203125 126.496094 116.9375 127.328125 113.679688 C 124.980469 113.953125 120.03125 114.457031 115.582031 114.496094 C 110.121094 114.546875 105.007812 113.957031 102.535156 113.617188 Z M 115.730469 127.640625 C 103.914062 127.640625 100.222656 112.796875 100.191406 112.640625 C 100.109375 112.320312 100.203125 111.984375 100.429688 111.746094 C 100.652344 111.503906 100.988281 111.394531 101.308594 111.445312 C 101.375 111.457031 108.140625 112.605469 115.5625 112.53125 C 121.515625 112.476562 128.390625 111.578125 128.460938 111.566406 C 128.773438 111.527344 129.082031 111.632812 129.296875 111.855469 C 129.515625 112.078125 129.609375 112.394531 129.558594 112.699219 C 129.464844 113.28125 127.078125 126.960938 116.640625 127.613281 C 116.332031 127.632812 116.03125 127.640625 115.730469 127.640625 " fill-opacity="1" fill-rule="nonzero"/><path fill="#000000" d="M 116.84375 147.578125 C 114.417969 147.578125 111.769531 146.914062 108.558594 145.59375 C 96.625 140.679688 87.753906 133.296875 82.183594 123.652344 C 79.90625 119.703125 77.84375 112.644531 76.515625 107.414062 C 76.386719 106.894531 76.699219 106.359375 77.226562 106.222656 C 77.753906 106.089844 78.289062 106.40625 78.417969 106.933594 C 80.257812 114.152344 82.195312 119.738281 83.886719 122.671875 C 89.230469 131.929688 97.78125 139.035156 109.304688 143.777344 C 115.296875 146.242188 118.90625 146.222656 123.105469 143.703125 C 132.707031 137.941406 141.339844 128.320312 145.089844 119.183594 C 146.632812 115.421875 149.476562 104.476562 150.589844 95.195312 C 150.652344 94.65625 151.128906 94.269531 151.679688 94.335938 C 152.21875 94.398438 152.601562 94.890625 152.539062 95.425781 C 151.40625 104.871094 148.492188 116.0625 146.90625 119.929688 C 143.003906 129.429688 134.058594 139.421875 124.117188 145.386719 C 121.679688 146.851562 119.386719 147.578125 116.84375 147.578125 " fill-opacity="1" fill-rule="nonzero"/><path fill="#000000" d="M 114.375 105.589844 C 114.078125 105.589844 113.789062 105.453125 113.59375 105.203125 C 113.261719 104.773438 113.34375 104.15625 113.773438 103.828125 C 114.933594 102.9375 117.882812 100.175781 117.640625 98.105469 C 117.582031 97.613281 117.066406 97.011719 116.480469 96.3125 C 114.25 93.683594 110.890625 89.707031 116.378906 78.339844 C 116.613281 77.855469 117.203125 77.652344 117.691406 77.886719 C 118.175781 78.121094 118.378906 78.710938 118.148438 79.195312 C 113.210938 89.410156 115.964844 92.667969 117.976562 95.042969 C 118.742188 95.949219 119.460938 96.800781 119.585938 97.878906 C 120.007812 101.414062 115.484375 104.992188 114.96875 105.386719 C 114.792969 105.523438 114.582031 105.589844 114.375 105.589844 " fill-opacity="1" fill-rule="nonzero"/><path fill="#000000" d="M 135.871094 84.558594 C 135.953125 81.503906 134.183594 78.984375 131.917969 78.929688 C 129.652344 78.871094 127.753906 81.304688 127.675781 84.359375 C 127.59375 87.410156 129.363281 89.933594 131.628906 89.988281 C 133.890625 90.046875 135.792969 87.617188 135.871094 84.558594 " fill-opacity="1" fill-rule="evenodd"/><path fill="#000000" d="M 150.894531 102.542969 C 150.445312 102.542969 150.039062 102.226562 149.9375 101.765625 C 149.820312 101.234375 150.15625 100.714844 150.6875 100.597656 C 154.324219 99.804688 158.542969 94.609375 159.046875 90.304688 C 159.378906 87.46875 159.277344 85.316406 158.738281 83.71875 C 158.5625 83.203125 158.835938 82.648438 159.351562 82.476562 C 159.867188 82.300781 160.421875 82.574219 160.59375 83.09375 C 161.230469 84.964844 161.363281 87.398438 160.996094 90.527344 C 160.390625 95.714844 155.585938 101.539062 151.105469 102.519531 C 151.03125 102.535156 150.960938 102.542969 150.894531 102.542969 " fill-opacity="1" fill-rule="nonzero"/><path fill="#000000" d="M 101.238281 84.703125 C 101.324219 81.609375 99.511719 79.054688 97.191406 79 C 94.875 78.945312 92.933594 81.402344 92.847656 84.5 C 92.765625 87.589844 94.578125 90.144531 96.894531 90.199219 C 99.214844 90.257812 101.160156 87.792969 101.238281 84.703125 " fill-opacity="1" fill-rule="evenodd"/><path fill="#000000" d="M 107.707031 68.175781 C 107.550781 68.175781 107.394531 68.136719 107.25 68.058594 C 106.441406 67.632812 105.605469 67.273438 104.765625 67.003906 C 104.25 66.839844 103.96875 66.28125 104.132812 65.769531 C 104.300781 65.253906 104.851562 64.964844 105.371094 65.132812 C 106.320312 65.441406 107.257812 65.839844 108.171875 66.324219 C 108.648438 66.578125 108.832031 67.171875 108.578125 67.648438 C 108.398438 67.984375 108.058594 68.175781 107.707031 68.175781 " fill-opacity="1" fill-rule="nonzero"/><path fill="#000000" d="M 76.105469 104.011719 C 76.082031 104.011719 76.0625 104.007812 76.039062 104.007812 C 73.480469 103.84375 70.238281 102.070312 68.238281 100.597656 C 67.804688 100.277344 67.710938 99.660156 68.03125 99.222656 C 68.355469 98.789062 68.964844 98.691406 69.40625 99.015625 C 71.265625 100.386719 74.179688 101.921875 76.167969 102.046875 C 76.710938 102.085938 77.117188 102.550781 77.082031 103.09375 C 77.046875 103.609375 76.617188 104.011719 76.105469 104.011719 " fill-opacity="1" fill-rule="nonzero"/><path fill="#000000" d="M 126.746094 68.34375 C 126.410156 68.34375 126.082031 68.167969 125.898438 67.859375 C 125.625 67.390625 125.777344 66.789062 126.25 66.515625 C 129.058594 64.859375 133.714844 63.550781 138.34375 64.855469 C 138.863281 65 139.167969 65.542969 139.019531 66.066406 C 138.871094 66.585938 138.328125 66.890625 137.8125 66.742188 C 133.777344 65.609375 129.707031 66.753906 127.246094 68.207031 C 127.089844 68.300781 126.914062 68.34375 126.746094 68.34375 " fill-opacity="1" fill-rule="nonzero"/><path fill="#000000" d="M 90.101562 133.820312 C 90.101562 133.820312 104.632812 146.585938 116.125 146.585938 C 125.820312 146.585938 137.957031 133.015625 137.957031 133.015625 L 138.292969 143.300781 C 138.292969 143.300781 128.886719 159.8125 112.488281 151.933594 C 101.914062 146.851562 90.101562 133.820312 90.101562 133.820312 " fill-opacity="1" fill-rule="evenodd"/><path fill="#000000" d="M 327.597656 181.347656 L 329.523438 182.199219 C 329.523438 182.199219 334.25 186.507812 332.386719 189.003906 C 330.523438 191.5 326.28125 191.214844 326.28125 191.214844 L 327.597656 181.347656 " fill-opacity="1" fill-rule="evenodd"/><path fill="#000000" d="M 289.382812 176.46875 L 292.054688 175.621094 L 291.351562 180.976562 C 291.351562 180.976562 289.699219 180.558594 288.726562 179.097656 C 287.746094 177.632812 289.382812 176.46875 289.382812 176.46875 " fill-opacity="1" fill-rule="evenodd"/><path fill="#000000" d="M 242.457031 106.140625 C 242.328125 106.140625 242.1875 106.117188 242.0625 106.058594 C 241.589844 105.847656 241.363281 105.316406 241.535156 104.839844 L 243.195312 99.46875 C 243.359375 98.949219 243.902344 98.65625 244.425781 98.816406 C 244.941406 98.980469 245.230469 99.527344 245.070312 100.046875 L 243.40625 105.414062 C 243.398438 105.453125 243.375 105.523438 243.359375 105.558594 C 243.195312 105.925781 242.835938 106.140625 242.457031 106.140625 " fill-opacity="1" fill-rule="nonzero"/><path fill="#000000" d="M 254.082031 113.105469 C 253.816406 113.105469 253.550781 112.996094 253.355469 112.78125 C 252.992188 112.382812 253.019531 111.757812 253.421875 111.394531 L 257.84375 107.371094 C 258.242188 107.007812 258.863281 107.035156 259.230469 107.4375 C 259.59375 107.839844 259.566406 108.460938 259.164062 108.824219 L 254.742188 112.847656 C 254.554688 113.019531 254.316406 113.105469 254.082031 113.105469 " fill-opacity="1" fill-rule="nonzero"/><path fill="#000000" d="M 264.828125 140.097656 C 264.71875 140.097656 264.613281 140.078125 264.503906 140.042969 L 258.832031 138.066406 C 258.324219 137.894531 258.015625 137.320312 258.191406 136.808594 C 258.367188 136.300781 258.890625 136.007812 259.402344 136.1875 L 265.148438 138.1875 C 265.660156 138.363281 265.933594 138.925781 265.753906 139.433594 C 265.613281 139.84375 265.234375 140.097656 264.828125 140.097656 " fill-opacity="1" fill-rule="nonzero"/><path fill="#000000" d="M 211.949219 121.761719 L 206.625 119.910156 C 206.117188 119.730469 205.839844 119.171875 206.019531 118.660156 C 206.199219 118.148438 206.757812 117.875 207.273438 118.054688 L 212.582031 119.902344 L 211.949219 121.761719 " fill-opacity="1" fill-rule="nonzero"/><path fill="#000000" d="M 257.75 152.578125 C 257.496094 152.578125 257.242188 152.484375 257.050781 152.289062 L 252.398438 147.59375 C 252.015625 147.207031 252.019531 146.585938 252.40625 146.203125 C 252.789062 145.820312 253.410156 145.824219 253.792969 146.210938 L 258.445312 150.90625 C 258.828125 151.289062 258.824219 151.910156 258.4375 152.292969 C 258.246094 152.484375 258 152.578125 257.75 152.578125 " fill-opacity="1" fill-rule="nonzero"/><path fill="#000000" d="M 218.257812 112.71875 C 218 112.71875 217.75 112.621094 217.558594 112.429688 L 213.773438 108.609375 C 213.394531 108.222656 213.394531 107.601562 213.78125 107.21875 C 214.167969 106.839844 214.785156 106.839844 215.171875 107.226562 L 218.953125 111.046875 C 219.335938 111.433594 219.332031 112.050781 218.945312 112.433594 C 218.753906 112.625 218.503906 112.71875 218.257812 112.71875 " fill-opacity="1" fill-rule="nonzero"/><path fill="#000000" d="M 260.378906 124.367188 L 260.097656 123.425781 L 259.878906 122.464844 L 265.5625 121.171875 C 266.089844 121.050781 266.617188 121.378906 266.738281 121.910156 C 266.859375 122.4375 266.53125 122.96875 266 123.085938 L 260.378906 124.367188 " fill-opacity="1" fill-rule="nonzero"/><path fill="#000000" d="M 228.765625 105.328125 L 228.757812 105.300781 L 227.367188 99.863281 C 227.234375 99.339844 227.550781 98.800781 228.074219 98.671875 C 228.597656 98.535156 229.136719 98.851562 229.269531 99.375 L 230.664062 104.824219 L 228.765625 105.328125 " fill-opacity="1" fill-rule="nonzero"/><g fill="#000000" fill-opacity="1"><g transform="translate(278.071481, 47.394811)"><g><path d="M 0.390625 -2.921875 C 0.390625 -3.503906 0.507812 -4.019531 0.75 -4.46875 C 0.988281 -4.914062 1.316406 -5.257812 1.734375 -5.5 C 2.148438 -5.75 2.613281 -5.875 3.125 -5.875 C 3.570312 -5.875 3.96875 -5.78125 4.3125 -5.59375 C 4.664062 -5.414062 4.9375 -5.203125 5.125 -4.953125 L 5.125 -5.78125 L 6.328125 -5.78125 L 6.328125 2.75 L 5.125 2.75 L 5.125 -0.84375 C 4.9375 -0.582031 4.660156 -0.359375 4.296875 -0.171875 C 3.941406 0.00390625 3.539062 0.09375 3.09375 0.09375 C 2.59375 0.09375 2.132812 -0.03125 1.71875 -0.28125 C 1.3125 -0.539062 0.988281 -0.898438 0.75 -1.359375 C 0.507812 -1.816406 0.390625 -2.335938 0.390625 -2.921875 Z M 5.125 -2.890625 C 5.125 -3.296875 5.039062 -3.644531 4.875 -3.9375 C 4.707031 -4.226562 4.488281 -4.453125 4.21875 -4.609375 C 3.957031 -4.765625 3.675781 -4.84375 3.375 -4.84375 C 3.0625 -4.84375 2.769531 -4.765625 2.5 -4.609375 C 2.238281 -4.460938 2.023438 -4.242188 1.859375 -3.953125 C 1.691406 -3.660156 1.609375 -3.316406 1.609375 -2.921875 C 1.609375 -2.523438 1.691406 -2.175781 1.859375 -1.875 C 2.023438 -1.570312 2.242188 -1.335938 2.515625 -1.171875 C 2.785156 -1.015625 3.070312 -0.9375 3.375 -0.9375 C 3.675781 -0.9375 3.957031 -1.015625 4.21875 -1.171875 C 4.488281 -1.328125 4.707031 -1.550781 4.875 -1.84375 C 5.039062 -2.144531 5.125 -2.492188 5.125 -2.890625 Z M 5.125 -2.890625 "/></g></g></g><g fill="#000000" fill-opacity="1"><g transform="translate(285.195728, 47.394811)"><g><path d="M 1.984375 -4.953125 C 2.160156 -5.242188 2.394531 -5.46875 2.6875 -5.625 C 2.976562 -5.789062 3.320312 -5.875 3.71875 -5.875 L 3.71875 -4.640625 L 3.40625 -4.640625 C 2.9375 -4.640625 2.582031 -4.519531 2.34375 -4.28125 C 2.101562 -4.039062 1.984375 -3.628906 1.984375 -3.046875 L 1.984375 0 L 0.78125 0 L 0.78125 -5.78125 L 1.984375 -5.78125 Z M 1.984375 -4.953125 "/></g></g></g><g fill="#000000" fill-opacity="1"><g transform="translate(289.230699, 47.394811)"><g><path d="M 0.390625 -2.890625 C 0.390625 -3.492188 0.507812 -4.019531 0.75 -4.46875 C 0.988281 -4.914062 1.320312 -5.257812 1.75 -5.5 C 2.175781 -5.75 2.664062 -5.875 3.21875 -5.875 C 3.925781 -5.875 4.507812 -5.707031 4.96875 -5.375 C 5.425781 -5.039062 5.734375 -4.566406 5.890625 -3.953125 L 4.59375 -3.953125 C 4.488281 -4.242188 4.320312 -4.46875 4.09375 -4.625 C 3.863281 -4.789062 3.570312 -4.875 3.21875 -4.875 C 2.726562 -4.875 2.335938 -4.695312 2.046875 -4.34375 C 1.753906 -4 1.609375 -3.515625 1.609375 -2.890625 C 1.609375 -2.273438 1.753906 -1.789062 2.046875 -1.4375 C 2.335938 -1.082031 2.726562 -0.90625 3.21875 -0.90625 C 3.914062 -0.90625 4.375 -1.210938 4.59375 -1.828125 L 5.890625 -1.828125 C 5.722656 -1.234375 5.40625 -0.765625 4.9375 -0.421875 C 4.476562 -0.078125 3.90625 0.09375 3.21875 0.09375 C 2.664062 0.09375 2.175781 -0.03125 1.75 -0.28125 C 1.320312 -0.53125 0.988281 -0.878906 0.75 -1.328125 C 0.507812 -1.773438 0.390625 -2.296875 0.390625 -2.890625 Z M 0.390625 -2.890625 "/></g></g></g><g fill="#000000" fill-opacity="1"><g transform="translate(295.535342, 47.394811)"><g><path d="M 3.296875 0.09375 C 2.753906 0.09375 2.257812 -0.03125 1.8125 -0.28125 C 1.375 -0.53125 1.03125 -0.878906 0.78125 -1.328125 C 0.53125 -1.773438 0.40625 -2.296875 0.40625 -2.890625 C 0.40625 -3.484375 0.53125 -4.003906 0.78125 -4.453125 C 1.039062 -4.910156 1.394531 -5.257812 1.84375 -5.5 C 2.289062 -5.75 2.789062 -5.875 3.34375 -5.875 C 3.894531 -5.875 4.394531 -5.75 4.84375 -5.5 C 5.289062 -5.257812 5.644531 -4.910156 5.90625 -4.453125 C 6.164062 -4.003906 6.296875 -3.484375 6.296875 -2.890625 C 6.296875 -2.304688 6.160156 -1.785156 5.890625 -1.328125 C 5.628906 -0.878906 5.269531 -0.53125 4.8125 -0.28125 C 4.351562 -0.03125 3.847656 0.09375 3.296875 0.09375 Z M 3.296875 -0.9375 C 3.609375 -0.9375 3.894531 -1.007812 4.15625 -1.15625 C 4.425781 -1.3125 4.644531 -1.535156 4.8125 -1.828125 C 4.988281 -2.117188 5.078125 -2.472656 5.078125 -2.890625 C 5.078125 -3.316406 4.992188 -3.675781 4.828125 -3.96875 C 4.671875 -4.257812 4.457031 -4.476562 4.1875 -4.625 C 3.925781 -4.769531 3.640625 -4.84375 3.328125 -4.84375 C 3.015625 -4.84375 2.726562 -4.769531 2.46875 -4.625 C 2.207031 -4.476562 2 -4.257812 1.84375 -3.96875 C 1.6875 -3.675781 1.609375 -3.316406 1.609375 -2.890625 C 1.609375 -2.273438 1.769531 -1.796875 2.09375 -1.453125 C 2.414062 -1.109375 2.816406 -0.9375 3.296875 -0.9375 Z M 3.296875 -0.9375 "/></g></g></g><g fill="#000000" fill-opacity="1"><g transform="translate(302.239276, 47.394811)"><g><path d="M 0.390625 -2.921875 C 0.390625 -3.503906 0.507812 -4.019531 0.75 -4.46875 C 0.988281 -4.914062 1.316406 -5.257812 1.734375 -5.5 C 2.148438 -5.75 2.613281 -5.875 3.125 -5.875 C 3.507812 -5.875 3.882812 -5.789062 4.25 -5.625 C 4.613281 -5.46875 4.90625 -5.253906 5.125 -4.984375 L 5.125 -7.765625 L 6.328125 -7.765625 L 6.328125 0 L 5.125 0 L 5.125 -0.875 C 4.925781 -0.59375 4.65625 -0.359375 4.3125 -0.171875 C 3.96875 0.00390625 3.570312 0.09375 3.125 0.09375 C 2.613281 0.09375 2.148438 -0.03125 1.734375 -0.28125 C 1.316406 -0.539062 0.988281 -0.898438 0.75 -1.359375 C 0.507812 -1.816406 0.390625 -2.335938 0.390625 -2.921875 Z M 5.125 -2.890625 C 5.125 -3.296875 5.039062 -3.644531 4.875 -3.9375 C 4.707031 -4.226562 4.488281 -4.453125 4.21875 -4.609375 C 3.957031 -4.765625 3.675781 -4.84375 3.375 -4.84375 C 3.0625 -4.84375 2.769531 -4.765625 2.5 -4.609375 C 2.238281 -4.460938 2.023438 -4.242188 1.859375 -3.953125 C 1.691406 -3.660156 1.609375 -3.316406 1.609375 -2.921875 C 1.609375 -2.523438 1.691406 -2.175781 1.859375 -1.875 C 2.023438 -1.570312 2.242188 -1.335938 2.515625 -1.171875 C 2.785156 -1.015625 3.070312 -0.9375 3.375 -0.9375 C 3.675781 -0.9375 3.957031 -1.015625 4.21875 -1.171875 C 4.488281 -1.328125 4.707031 -1.550781 4.875 -1.84375 C 5.039062 -2.144531 5.125 -2.492188 5.125 -2.890625 Z M 5.125 -2.890625 "/></g></g></g><g fill="#000000" fill-opacity="1"><g transform="translate(309.363523, 47.394811)"><g><path d="M 6.09375 -3.03125 C 6.09375 -2.8125 6.078125 -2.617188 6.046875 -2.453125 L 1.625 -2.453125 C 1.664062 -1.984375 1.835938 -1.609375 2.140625 -1.328125 C 2.453125 -1.046875 2.832031 -0.90625 3.28125 -0.90625 C 3.914062 -0.90625 4.367188 -1.175781 4.640625 -1.71875 L 5.9375 -1.71875 C 5.757812 -1.1875 5.441406 -0.75 4.984375 -0.40625 C 4.523438 -0.0703125 3.957031 0.09375 3.28125 0.09375 C 2.726562 0.09375 2.234375 -0.03125 1.796875 -0.28125 C 1.359375 -0.53125 1.015625 -0.878906 0.765625 -1.328125 C 0.515625 -1.773438 0.390625 -2.296875 0.390625 -2.890625 C 0.390625 -3.492188 0.507812 -4.019531 0.75 -4.46875 C 0.988281 -4.914062 1.328125 -5.257812 1.765625 -5.5 C 2.203125 -5.75 2.707031 -5.875 3.28125 -5.875 C 3.820312 -5.875 4.304688 -5.753906 4.734375 -5.515625 C 5.160156 -5.285156 5.492188 -4.953125 5.734375 -4.515625 C 5.972656 -4.085938 6.09375 -3.59375 6.09375 -3.03125 Z M 4.84375 -3.40625 C 4.832031 -3.851562 4.671875 -4.207031 4.359375 -4.46875 C 4.054688 -4.738281 3.675781 -4.875 3.21875 -4.875 C 2.8125 -4.875 2.457031 -4.738281 2.15625 -4.46875 C 1.863281 -4.207031 1.691406 -3.851562 1.640625 -3.40625 Z M 4.84375 -3.40625 "/></g></g></g><g fill="#000000" fill-opacity="1"><g transform="translate(315.846794, 47.394811)"><g><path d="M 1.265625 0.078125 C 1.046875 0.078125 0.863281 0.00390625 0.71875 -0.140625 C 0.570312 -0.296875 0.5 -0.476562 0.5 -0.6875 C 0.5 -0.90625 0.570312 -1.085938 0.71875 -1.234375 C 0.863281 -1.378906 1.046875 -1.453125 1.265625 -1.453125 C 1.472656 -1.453125 1.648438 -1.378906 1.796875 -1.234375 C 1.953125 -1.085938 2.03125 -0.90625 2.03125 -0.6875 C 2.03125 -0.476562 1.953125 -0.296875 1.796875 -0.140625 C 1.648438 0.00390625 1.472656 0.078125 1.265625 0.078125 Z M 1.265625 0.078125 "/></g></g></g><g fill="#000000" fill-opacity="1"><g transform="translate(318.379157, 47.394811)"><g><path d="M 1.390625 -6.546875 C 1.179688 -6.546875 1 -6.617188 0.84375 -6.765625 C 0.695312 -6.921875 0.625 -7.101562 0.625 -7.3125 C 0.625 -7.53125 0.695312 -7.710938 0.84375 -7.859375 C 1 -8.003906 1.179688 -8.078125 1.390625 -8.078125 C 1.609375 -8.078125 1.789062 -8.003906 1.9375 -7.859375 C 2.082031 -7.710938 2.15625 -7.53125 2.15625 -7.3125 C 2.15625 -7.101562 2.082031 -6.921875 1.9375 -6.765625 C 1.789062 -6.617188 1.609375 -6.546875 1.390625 -6.546875 Z M 1.984375 1.140625 C 1.984375 1.703125 1.84375 2.109375 1.5625 2.359375 C 1.28125 2.617188 0.867188 2.75 0.328125 2.75 L -0.296875 2.75 L -0.296875 1.75 L 0.109375 1.75 C 0.359375 1.75 0.53125 1.695312 0.625 1.59375 C 0.726562 1.5 0.78125 1.347656 0.78125 1.140625 L 0.78125 -5.78125 L 1.984375 -5.78125 Z M 1.984375 1.140625 "/></g></g></g><g fill="#000000" fill-opacity="1"><g transform="translate(321.1532, 47.394811)"><g><path d="M 0.390625 -2.921875 C 0.390625 -3.503906 0.507812 -4.019531 0.75 -4.46875 C 0.988281 -4.914062 1.316406 -5.257812 1.734375 -5.5 C 2.148438 -5.75 2.613281 -5.875 3.125 -5.875 C 3.570312 -5.875 3.960938 -5.785156 4.296875 -5.609375 C 4.640625 -5.429688 4.914062 -5.210938 5.125 -4.953125 L 5.125 -5.78125 L 6.328125 -5.78125 L 6.328125 0 L 5.125 0 L 5.125 -0.859375 C 4.914062 -0.585938 4.632812 -0.359375 4.28125 -0.171875 C 3.9375 0.00390625 3.539062 0.09375 3.09375 0.09375 C 2.601562 0.09375 2.148438 -0.03125 1.734375 -0.28125 C 1.316406 -0.539062 0.988281 -0.898438 0.75 -1.359375 C 0.507812 -1.816406 0.390625 -2.335938 0.390625 -2.921875 Z M 5.125 -2.890625 C 5.125 -3.296875 5.039062 -3.644531 4.875 -3.9375 C 4.707031 -4.226562 4.488281 -4.453125 4.21875 -4.609375 C 3.957031 -4.765625 3.675781 -4.84375 3.375 -4.84375 C 3.0625 -4.84375 2.769531 -4.765625 2.5 -4.609375 C 2.238281 -4.460938 2.023438 -4.242188 1.859375 -3.953125 C 1.691406 -3.660156 1.609375 -3.316406 1.609375 -2.921875 C 1.609375 -2.523438 1.691406 -2.175781 1.859375 -1.875 C 2.023438 -1.570312 2.242188 -1.335938 2.515625 -1.171875 C 2.785156 -1.015625 3.070312 -0.9375 3.375 -0.9375 C 3.675781 -0.9375 3.957031 -1.015625 4.21875 -1.171875 C 4.488281 -1.328125 4.707031 -1.550781 4.875 -1.84375 C 5.039062 -2.144531 5.125 -2.492188 5.125 -2.890625 Z M 5.125 -2.890625 "/></g></g></g><g fill="#000000" fill-opacity="1"><g transform="translate(328.277447, 47.394811)"><g><path d="M 1.390625 -6.546875 C 1.179688 -6.546875 1 -6.617188 0.84375 -6.765625 C 0.695312 -6.921875 0.625 -7.101562 0.625 -7.3125 C 0.625 -7.53125 0.695312 -7.710938 0.84375 -7.859375 C 1 -8.003906 1.179688 -8.078125 1.390625 -8.078125 C 1.609375 -8.078125 1.789062 -8.003906 1.9375 -7.859375 C 2.082031 -7.710938 2.15625 -7.53125 2.15625 -7.3125 C 2.15625 -7.101562 2.082031 -6.921875 1.9375 -6.765625 C 1.789062 -6.617188 1.609375 -6.546875 1.390625 -6.546875 Z M 1.984375 -5.78125 L 1.984375 0 L 0.78125 0 L 0.78125 -5.78125 Z M 1.984375 -5.78125 "/></g></g></g><g fill="#000000" fill-opacity="1"><g transform="translate(331.05149, 47.394811)"><g><path d="M 3.703125 -5.875 C 4.160156 -5.875 4.566406 -5.78125 4.921875 -5.59375 C 5.285156 -5.40625 5.566406 -5.125 5.765625 -4.75 C 5.972656 -4.382812 6.078125 -3.9375 6.078125 -3.40625 L 6.078125 0 L 4.890625 0 L 4.890625 -3.234375 C 4.890625 -3.753906 4.757812 -4.148438 4.5 -4.421875 C 4.238281 -4.703125 3.882812 -4.84375 3.4375 -4.84375 C 2.988281 -4.84375 2.632812 -4.703125 2.375 -4.421875 C 2.113281 -4.148438 1.984375 -3.753906 1.984375 -3.234375 L 1.984375 0 L 0.78125 0 L 0.78125 -5.78125 L 1.984375 -5.78125 L 1.984375 -5.125 C 2.179688 -5.363281 2.429688 -5.546875 2.734375 -5.671875 C 3.035156 -5.804688 3.359375 -5.875 3.703125 -5.875 Z M 3.703125 -5.875 "/></g></g></g><g fill="#000000" fill-opacity="1"><g transform="translate(337.871012, 47.394811)"><g><path d="M 1.390625 -6.546875 C 1.179688 -6.546875 1 -6.617188 0.84375 -6.765625 C 0.695312 -6.921875 0.625 -7.101562 0.625 -7.3125 C 0.625 -7.53125 0.695312 -7.710938 0.84375 -7.859375 C 1 -8.003906 1.179688 -8.078125 1.390625 -8.078125 C 1.609375 -8.078125 1.789062 -8.003906 1.9375 -7.859375 C 2.082031 -7.710938 2.15625 -7.53125 2.15625 -7.3125 C 2.15625 -7.101562 2.082031 -6.921875 1.9375 -6.765625 C 1.789062 -6.617188 1.609375 -6.546875 1.390625 -6.546875 Z M 1.984375 -5.78125 L 1.984375 0 L 0.78125 0 L 0.78125 -5.78125 Z M 1.984375 -5.78125 "/></g></g></g><g fill="#000000" fill-opacity="1"><g transform="translate(340.645055, 47.394811)"><g><path d="M 1.984375 -7.765625 L 1.984375 0 L 0.78125 0 L 0.78125 -7.765625 Z M 1.984375 -7.765625 "/></g></g></g><g fill="#000000" fill-opacity="1"><g transform="translate(343.419098, 47.394811)"><g><path d="M 1.265625 0.078125 C 1.046875 0.078125 0.863281 0.00390625 0.71875 -0.140625 C 0.570312 -0.296875 0.5 -0.476562 0.5 -0.6875 C 0.5 -0.90625 0.570312 -1.085938 0.71875 -1.234375 C 0.863281 -1.378906 1.046875 -1.453125 1.265625 -1.453125 C 1.472656 -1.453125 1.648438 -1.378906 1.796875 -1.234375 C 1.953125 -1.085938 2.03125 -0.90625 2.03125 -0.6875 C 2.03125 -0.476562 1.953125 -0.296875 1.796875 -0.140625 C 1.648438 0.00390625 1.472656 0.078125 1.265625 0.078125 Z M 1.265625 0.078125 "/></g></g></g><g fill="#000000" fill-opacity="1"><g transform="translate(345.951462, 47.394811)"><g><path d="M 0.390625 -2.921875 C 0.390625 -3.503906 0.507812 -4.019531 0.75 -4.46875 C 0.988281 -4.914062 1.316406 -5.257812 1.734375 -5.5 C 2.148438 -5.75 2.613281 -5.875 3.125 -5.875 C 3.507812 -5.875 3.882812 -5.789062 4.25 -5.625 C 4.613281 -5.46875 4.90625 -5.253906 5.125 -4.984375 L 5.125 -7.765625 L 6.328125 -7.765625 L 6.328125 0 L 5.125 0 L 5.125 -0.875 C 4.925781 -0.59375 4.65625 -0.359375 4.3125 -0.171875 C 3.96875 0.00390625 3.570312 0.09375 3.125 0.09375 C 2.613281 0.09375 2.148438 -0.03125 1.734375 -0.28125 C 1.316406 -0.539062 0.988281 -0.898438 0.75 -1.359375 C 0.507812 -1.816406 0.390625 -2.335938 0.390625 -2.921875 Z M 5.125 -2.890625 C 5.125 -3.296875 5.039062 -3.644531 4.875 -3.9375 C 4.707031 -4.226562 4.488281 -4.453125 4.21875 -4.609375 C 3.957031 -4.765625 3.675781 -4.84375 3.375 -4.84375 C 3.0625 -4.84375 2.769531 -4.765625 2.5 -4.609375 C 2.238281 -4.460938 2.023438 -4.242188 1.859375 -3.953125 C 1.691406 -3.660156 1.609375 -3.316406 1.609375 -2.921875 C 1.609375 -2.523438 1.691406 -2.175781 1.859375 -1.875 C 2.023438 -1.570312 2.242188 -1.335938 2.515625 -1.171875 C 2.785156 -1.015625 3.070312 -0.9375 3.375 -0.9375 C 3.675781 -0.9375 3.957031 -1.015625 4.21875 -1.171875 C 4.488281 -1.328125 4.707031 -1.550781 4.875 -1.84375 C 5.039062 -2.144531 5.125 -2.492188 5.125 -2.890625 Z M 5.125 -2.890625 "/></g></g></g><g fill="#000000" fill-opacity="1"><g transform="translate(353.075709, 47.394811)"><g><path d="M 6.09375 -3.03125 C 6.09375 -2.8125 6.078125 -2.617188 6.046875 -2.453125 L 1.625 -2.453125 C 1.664062 -1.984375 1.835938 -1.609375 2.140625 -1.328125 C 2.453125 -1.046875 2.832031 -0.90625 3.28125 -0.90625 C 3.914062 -0.90625 4.367188 -1.175781 4.640625 -1.71875 L 5.9375 -1.71875 C 5.757812 -1.1875 5.441406 -0.75 4.984375 -0.40625 C 4.523438 -0.0703125 3.957031 0.09375 3.28125 0.09375 C 2.726562 0.09375 2.234375 -0.03125 1.796875 -0.28125 C 1.359375 -0.53125 1.015625 -0.878906 0.765625 -1.328125 C 0.515625 -1.773438 0.390625 -2.296875 0.390625 -2.890625 C 0.390625 -3.492188 0.507812 -4.019531 0.75 -4.46875 C 0.988281 -4.914062 1.328125 -5.257812 1.765625 -5.5 C 2.203125 -5.75 2.707031 -5.875 3.28125 -5.875 C 3.820312 -5.875 4.304688 -5.753906 4.734375 -5.515625 C 5.160156 -5.285156 5.492188 -4.953125 5.734375 -4.515625 C 5.972656 -4.085938 6.09375 -3.59375 6.09375 -3.03125 Z M 4.84375 -3.40625 C 4.832031 -3.851562 4.671875 -4.207031 4.359375 -4.46875 C 4.054688 -4.738281 3.675781 -4.875 3.21875 -4.875 C 2.8125 -4.875 2.457031 -4.738281 2.15625 -4.46875 C 1.863281 -4.207031 1.691406 -3.851562 1.640625 -3.40625 Z M 4.84375 -3.40625 "/></g></g></g><g fill="#000000" fill-opacity="1"><g transform="translate(359.55898, 47.394811)"><g><path d="M 3.03125 -1.078125 L 4.65625 -5.78125 L 5.9375 -5.78125 L 3.734375 0 L 2.296875 0 L 0.109375 -5.78125 L 1.390625 -5.78125 Z M 3.03125 -1.078125 "/></g></g></g></svg>